/* XPM */
static char *1[] = {
/* width height num_colors chars_per_pixel */
"    25    43       25            1",
/* colors */
". c #000000",
"# c #080000",
"a c #100000",
"b c #180000",
"c c #210000",
"d c #290000",
"e c #310000",
"f c #390000",
"g c #4a0000",
"h c #520000",
"i c #5a0000",
"j c #630000",
"k c #730000",
"l c #7b0000",
"m c #840000",
"n c #8c0000",
"o c #9c0000",
"p c #a50000",
"q c #ad0000",
"r c #ce0000",
"s c #d60000",
"t c #de0000",
"u c #e70000",
"v c #f70000",
"w c #ff0000",
/* pixels */
".........................",
".........................",
".........................",
"....................#b#..",
"...................#elg#.",
"...................dnsqf#",
"..................airvunb",
"..................akuwupc",
"..................akuwvpc",
"..................akuwupc",
"..................bktwvpc",
"..................akuwupc",
"..................bktwvpc",
"..................akuwupc",
"..................bktwvpc",
"..................akuwupc",
"..................bktwvpc",
"..................aktwupc",
"..................#hrvtlb",
"...................clroe#",
"....................djf#.",
"....................#ca..",
"....................djf#.",
"...................clroe#",
"..................#hrvtlb",
"..................aktwupc",
"..................akuwvpc",
"..................akuwupc",
"..................bktwvpc",
"..................akuwupc",
"..................bktwvpc",
"..................akuwupc",
"..................bktwvpc",
"..................akuwupc",
"..................bktwvpc",
"..................akuwupc",
"..................airvumb",
"...................dnsqf#",
"...................#elga.",
"....................#b#..",
".........................",
".........................",
"........................."
};
