/* XPM */
static char *3[] = {
/* width height num_colors chars_per_pixel */
"    25    43       29            1",
/* colors */
". c #000000",
"# c #080000",
"a c #100000",
"b c #180000",
"c c #210000",
"d c #290000",
"e c #310000",
"f c #390000",
"g c #420000",
"h c #4a0000",
"i c #520000",
"j c #5a0000",
"k c #630000",
"l c #6b0000",
"m c #730000",
"n c #7b0000",
"o c #840000",
"p c #8c0000",
"q c #940000",
"r c #9c0000",
"s c #a50000",
"t c #ad0000",
"u c #ce0000",
"v c #d60000",
"w c #de0000",
"x c #e70000",
"y c #ef0000",
"z c #f70000",
"A c #ff0000",
/* pixels */
".....#bcccccccccccb#.....",
"....afosssssssssssofa....",
"...#gtxyyyyyyyyyyyxtg#...",
"...bmvzAAAAAAAAAAAzvnd#..",
"...#douwwxwwxwwxwwupkoga.",
"....#cillllmlllllljhqvtf#",
"......aaaaaaaabaaabkuzxob",
"..................amxAysc",
"..................amxAysc",
"..................amxAysc",
"..................bmwAysc",
"..................amxAysc",
"..................bmwAysc",
"..................amxAysc",
"..................bmwAysc",
"..................amxAysc",
"..................bmwAysc",
"..................amwAyrc",
"......abbbbbbbbbbbcjuzwnb",
"....#elppppppppppomhoure#",
"...#frvxxxxxxxxxxxvrklf#.",
"...bmvzAAAAAAAAAAAzvof#..",
"...#frvxxxxxxxxxxxwrklf#.",
"....#elppppppppppomhoure#",
"......abbbbbbbbbbbciuzwnb",
"..................amwAyrc",
"..................amxAysc",
"..................amxAysc",
"..................bmwAysc",
"..................amxAysc",
"..................bmwAysc",
"..................amxAysc",
"..................bmwAysc",
"..................amxAysc",
"..................bmwAysc",
"..................amxAysc",
"......#aaaaaaaaaaabkuzxob",
"....#cillmllmllmlljhqvtf#",
"...#douwxwxwwxwwxwupknha.",
"...bmvzAAAAAAAAAAAzvnd#..",
"...#gtxyyyyyyyyyyyxtg#...",
"....afosssssssssssofa....",
".....#bcccccccccccb#....."
};
