/* XPM */
static char *4[] = {
/* width height num_colors chars_per_pixel */
"    25    43       26            1",
/* colors */
". c #000000",
"# c #080000",
"a c #100000",
"b c #180000",
"c c #210000",
"d c #290000",
"e c #310000",
"f c #390000",
"g c #4a0000",
"h c #5a0000",
"i c #630000",
"j c #6b0000",
"k c #730000",
"l c #7b0000",
"m c #840000",
"n c #8c0000",
"o c #9c0000",
"p c #a50000",
"q c #ad0000",
"r c #ce0000",
"s c #d60000",
"t c #de0000",
"u c #e70000",
"v c #ef0000",
"w c #f70000",
"x c #ff0000",
/* pixels */
".........................",
".........................",
".........................",
"..#b#...............#b#..",
".agke#.............#elg#.",
"#fqsnd.............dnsqf#",
"bmuxrha...........ahrwunb",
"cpvxuka...........akuxvpc",
"cpvxtka...........akuxvpc",
"cpvxuka...........akuxvpc",
"cpvxtkb...........bktxvpc",
"cpvxuka...........akuxvpc",
"cpvxuka...........bktxvpc",
"cpvxtkb...........akuxvpc",
"cpvxuka...........bktxvpc",
"cpvxuka...........akuxvpc",
"cpvxtkb...........bktxvpc",
"covxuja...........aktxvoc",
"bltwrhcbbbbbbbbbbbchrwtlb",
"#eormgkmnnnnnnnnnmkgmroe#",
".#fjiosuuuuuuuuuuusoijf#.",
"..#clsxxxxxxxxxxxxwsmf#..",
"...#fosuuuuuuuuuuutoijf#.",
"....#ejnnnnnnnnnnmkgmroe#",
"......abbbbbbbbbbbchrwtlb",
"..................ajtxvoc",
"..................bkuxvpc",
"..................akuxvpc",
"..................akuxvpc",
"..................bktxvpc",
"..................akuxvpc",
"..................bktxvpc",
"..................akuxvpc",
"..................bktxvpc",
"..................akuxvpc",
"..................akuxvpc",
"..................ahrwumb",
"...................dnsqf#",
"...................#elg#.",
"....................#b#..",
".........................",
".........................",
"........................."
};
