/* XPM */
static char * 8_xpm[] = {
"35 48 11 1",
" 	c None",
".	c #000000",
"+	c #1B0000",
"@	c #530000",
"#	c #8A0000",
"$	c #A60000",
"%	c #370000",
"&	c #C10000",
"*	c #F90000",
"=	c #DD0000",
"-	c #6E0000",
"...................................",
"...................................",
"...................................",
"...................................",
"...................................",
"...................................",
"...................................",
"...................................",
"..............+@#$$$#@.............",
"............%&*********#+..........",
"...........@************=@.........",
"..........@***************+........",
".........+****************=........",
".........#*****&+...%=*****@.......",
".........&*****+.....@*****#.......",
".........*****&.......*****$.......",
".........=****$.......*****$.......",
".........$****=......+*****-.......",
".........-*****@.....#*****+.......",
"..........=*****-+.+#*****$........",
"..........+=*************=.........",
"...........+&***********$..........",
"............-=*********=%..........",
"..........+&*************$+........",
"..........=******$$&******=........",
".........#*****$+...+=*****#.......",
".........*****=+.....+******+......",
"........@*****-.......#*****@......",
"........$*****+.......@*****$......",
"........$*****........@*****$......",
"........$*****+.......@*****$......",
"........#*****-.......#*****-......",
"........@*****=+......=*****%......",
".........=*****$+...+$*****&.......",
".........@*******$$$=******%.......",
"..........@***************@........",
"...........@*************@.........",
"............+#*********$+..........",
"...............@#$$$#@.............",
"...................................",
"...................................",
"...................................",
"...................................",
"...................................",
"...................................",
"...................................",
"...................................",
"..................................."};
