/* XPM */
static char *8[] = {
/* width height num_colors chars_per_pixel */
"    25    43       28            1",
/* colors */
". c #000000",
"# c #080000",
"a c #100000",
"b c #180000",
"c c #210000",
"d c #290000",
"e c #310000",
"f c #390000",
"g c #420000",
"h c #4a0000",
"i c #5a0000",
"j c #630000",
"k c #6b0000",
"l c #730000",
"m c #7b0000",
"n c #840000",
"o c #8c0000",
"p c #940000",
"q c #9c0000",
"r c #a50000",
"s c #ad0000",
"t c #ce0000",
"u c #d60000",
"v c #de0000",
"w c #e70000",
"x c #ef0000",
"y c #f70000",
"z c #ff0000",
/* pixels */
".....#bcccccccccccb#.....",
"....afnrrrrrrrrrrrnfa....",
"...#gswxxxxxxxxxxxwsg#...",
"..#emuyzzzzzzzzzzzyumd#..",
".agnjotvvwvvwvvwvvtojnga.",
"#fsuphikkkklkkkkkkihpusf#",
"bowytjbaabaaaabaaabjtywnb",
"crxzwka...........alwzxrc",
"crxzwla...........alwzxrc",
"crxzvlb...........alwzxrc",
"crxzwla...........blvzxrc",
"crxzwla...........alwzxrc",
"crxzvlb...........blvzxrc",
"crxzwla...........alwzxrc",
"crxzwla...........blvzxrc",
"crxzvlb...........alwzxrc",
"crxzwla...........blvzxrc",
"cqxzvla...........alvzxqc",
"bmvytibbbbbbbbbbbbcityvmb",
"#eqtnhlnooooooooonlhntqe#",
".#fkjqvwwwwwwwwwwwuqjkf#.",
"..afnuyzzzzzzzzzzzyunf#..",
".#fkjquwwwwwwwwwwwvqjkf#.",
"#eqtnhlnooooooooonlhntqe#",
"bmvyticbbbbbbbbbbbcityvmb",
"cqxzvka...........akvzxqc",
"crxzwla...........blwzxrc",
"crxzwla...........alwzxrc",
"crxzvlb...........alwzxrc",
"crxzwla...........blvzxrc",
"crxzwla...........alwzxrc",
"crxzvlb...........blvzxrc",
"crxzwla...........alwzxrc",
"crxzwla...........blvzxrc",
"crxzvlb...........alwzxrc",
"crxzwla...........alwzxrc",
"bnwytjbaaaaaaaaaaabjtywnb",
"#fsuphikkklkklkklkihpusf#",
".ahmjotvwvvwvvwvvvtojmha.",
"..#emtyzzzzzzzzzzzyumd#..",
"...#hswxxxxxxxxxxxwsga...",
"....afnrrrrrrrrrrrnfa....",
".....#bcccccccccccb#....."
};
