/* XPM */
static char * eof_xpm[] = {
"60 60 57 1",
" 	c None",
".	c #D3D3D3",
"+	c #D4D4D4",
"@	c #D2D2D2",
"#	c #D0D0D0",
"$	c #B0B0B0",
"%	c #575757",
"&	c #696969",
"*	c #7A7A7A",
"=	c #C2C2C2",
"-	c #8C8C8C",
";	c #979797",
">	c #000000",
",	c #050505",
"'	c #252525",
")	c #3E3E3E",
"!	c #3C3C3C",
"~	c #303030",
"{	c #111111",
"]	c #1E1E1E",
"^	c #202020",
"/	c #0A0A0A",
"(	c #070707",
"_	c #6E6E6E",
":	c #B5B5B5",
"<	c #1A1A1A",
"[	c #505050",
"}	c #030303",
"|	c #C9C9C9",
"1	c #595959",
"2	c #5A5A5A",
"3	c #838383",
"4	c #939393",
"5	c #0E0E0E",
"6	c #B7B7B7",
"7	c #1C1C1C",
"8	c #C7C7C7",
"9	c #2E2E2E",
"0	c #454545",
"a	c #CCCCCC",
"b	c #CBCBCB",
"c	c #272727",
"d	c #8E8E8E",
"e	c #232323",
"f	c #929292",
"g	c #151515",
"h	c #757575",
"i	c #898989",
"j	c #2A2A2A",
"k	c #C0C0C0",
"l	c #131313",
"m	c #B3B3B3",
"n	c #4E4E4E",
"o	c #ABABAB",
"p	c #797979",
"q	c #9A9A9A",
"r	c #9E9E9E",
"....++++++++...........+......................++++++++++++++",
"+.+.++++++++...........+......................++++++++++++++",
"..+.++++++++...........+......................++++++++++++++",
".++.++++++++...........+......................++++++++++++++",
"....++++++++...........+......................++++++++++++++",
"....++++++++...........+......................++++++++++++++",
"+...++++++++...........+......................++++++++++++++",
"....++++++++...........+......................++++++++++++++",
"+...++++++++...........+......................+++++@.+++++++",
"..+.++++++++...........+......................+++++##.++++++",
"++..++++++++...........+......................++++++#@++++++",
"....++++++++...........+......................++++++++++++++",
"....++++++++...........+......................++++++++++++++",
"+++.++++++++...........+......................++++++++++++++",
"....++++++++...........+......................++++++++++++++",
".++.++++++++...........+......................++++++++++++++",
"....++++++++...........+......................++++++++++++++",
"....++++++++...........+......................++++++++++++++",
".+..++++++++...........+......................++++++++++++++",
"....++++++++...........+......................++++++++++++++",
".++.++++++++...........+......................++++++++++++++",
"....++++++++...........+......................++++++++++++++",
"++..++++++++...........+......................++++++++++++++",
"+.+.++++++++...........+......................++++++++++++++",
"....++++++++...........+......................++++++++++++++",
"+...++++++$%%%%%%&.*%%=+.$%&..%%%%%*.=%%%%%%%%%&++++&-++++++",
"....++++++;>,'''').!>>~+.{>]..>>^'/(_:''<>,''[[}&+|1}2++++++",
".++.++++++;>]......!>>]+.>>]..>>:.3>>:..;>]...45~6;>54++++++",
"....++++++;>78888@.!907ab>>]..>>:..>>:..;>]...+c>de>f+++++++",
"....++++++;>>>>>>:.!!2>2!g^]..>>hii>jk..;>]...+:>>>jk+++++++",
"+++.++++++;>liiii|.!!2>2!!2]..>>>>>cm...;>]...+|n>cm++++++++",
"....++++++;>]......!!a709!2]..>>o88b....;>]...++p>!+++++++++",
"++..++++++;>]......!!.]>>-2]..>>:.......;>]...++p>!+++++++++",
".+..++++++;>,'''').!!.q>>.2]..>>:.......;>]...++p>!+++++++++",
"+.+.++++++$%%%%%%&.**.=%%.-&..%%=.......$%&...++r%*+++++++++",
".+..++++++++...........+......................++++++++++++++",
"++..++++++++...........+......................++++++++++++++",
"..+.++++++++...........+......................++++++++++++++",
".+..++++++++...........+......................++++++++++++++",
"++..++++++++...........+......................++++++++++++++",
"....++++++++...........+......................++++++++++++++",
"+++.++++++++...........+......................++++++++++++++",
"+.+.++++++++...........+......................++++++++++++++",
"+...++++++++...........+......................++++++++++++++",
".+..++++++++...........+......................++++++++++++++",
"+...++++++++...........+......................++++++++++++++",
"+++.++++++++...........+......................++++++++++++++",
"..+.++++++++...........+......................++++++++++++++",
"+++.++++++++...........+......................++++++++++++++",
"..+.++++++++...........+......................++++++++++++++",
".+..++++++++...........+......................++++++++++++++",
"....++++++++...........+......................++++++++++++++",
".++.++++++++...........+......................++++++++++++++",
"....++++++++...........+......................++++++++++++++",
"+...++++++++...........+......................++++++++++++++",
"....++++++++...........+......................++++++++++++++",
"+...++++++++...........+......................++++++++++++++",
"..+.++++++++...........+......................++++++++++++++",
"+.+.++++++++...........+......................++++++++++++++",
"....++++++++...........+......................++++++++++++++"};
