/* XPM */
static char * eon_xpm[] = {
"60 60 64 1",
" 	c None",
".	c #F6FF00",
"+	c #F6FE00",
"@	c #F7FF00",
"#	c #F7FE00",
"$	c #F7FC00",
"%	c #F7F700",
"&	c #CDD400",
"*	c #656800",
"=	c #7A7E00",
"-	c #8F9300",
";	c #E2E900",
">	c #656900",
",	c #A3A900",
"'	c #B0B600",
")	c #000000",
"!	c #060600",
"~	c #2B2D00",
"{	c #484A00",
"]	c #464800",
"^	c #383900",
"/	c #141500",
"(	c #232400",
"_	c #252600",
":	c #0C0C00",
"<	c #080800",
"[	c #808400",
"}	c #D3DA00",
"|	c #1F2000",
"1	c #5D6000",
"2	c #040400",
"3	c #EAF200",
"4	c #676B00",
"5	c #696D00",
"6	c #999E00",
"7	c #ACB100",
"8	c #101100",
"9	c #D5DC00",
"0	c #212200",
"a	c #E8F000",
"b	c #F4FC00",
"c	c #353700",
"d	c #505300",
"e	c #EEF600",
"f	c #ECF400",
"g	c #2D2F00",
"h	c #A6AB00",
"i	c #292A00",
"j	c #AAAF00",
"k	c #181900",
"l	c #888D00",
"m	c #9FA500",
"n	c #313300",
"o	c #E0E700",
"p	c #161700",
"q	c #9FA400",
"r	c #D1D800",
"s	c #5B5E00",
"t	c #C7CD00",
"u	c #E8EF00",
"v	c #8D9100",
"w	c #484B00",
"x	c #B4BA00",
"y	c #B8BE00",
"...+@@@@@@@@+++++++++++@++++++++++++++++++++++@@@@@@@@@@@@@@",
".@.+@@@@@@@@+++++++++++@++++++++++++++++++++++@@@@@@@@@@@@@@",
"...+@@@@@@@@+++++++++++@++++++++++++++++++++++@@@@@@@@@@@@@@",
"...+@@@@@@@@+++++++++++@++++++++++++++++++++++@@@@@@@@@@@@@@",
".#.+@@@@@@@@+++++++++++@++++++++++++++++++++++@@@@@@@@@@@@@@",
".@.+@@@@@@@@+++++++++++@++++++++++++++++++++++@@@@@@@@@@@@@@",
"...+@@@@@@@@+++++++++++@++++++++++++++++++++++@@@@@@@@@@@@@@",
"...+@@@@@@@@+++++++++++@++++++++++++++++++++++@@@@@@@@@@@@@@",
".+.+@@@@@@@@+++++++++++@++++++++++++++++++++++@@@@@$#@@@@@@@",
"...+@@@@@@@@+++++++++++@++++++++++++++++++++++@@@@@%%#@@@@@@",
"...+@@@@@@@@+++++++++++@++++++++++++++++++++++@@@@@@%$@@@@@@",
"...+@@@@@@@@+++++++++++@++++++++++++++++++++++@@@@@@@@@@@@@@",
"..#+@@@@@@@@+++++++++++@++++++++++++++++++++++@@@@@@@@@@@@@@",
"...+@@@@@@@@+++++++++++@++++++++++++++++++++++@@@@@@@@@@@@@@",
"...+@@@@@@@@+++++++++++@++++++++++++++++++++++@@@@@@@@@@@@@@",
"...+@@@@@@@@+++++++++++@++++++++++++++++++++++@@@@@@@@@@@@@@",
".#.+@@@@@@@@+++++++++++@++++++++++++++++++++++@@@@@@@@@@@@@@",
"..@+@@@@@@@@+++++++++++@++++++++++++++++++++++@@@@@@@@@@@@@@",
"..++@@@@@@@@+++++++++++@++++++++++++++++++++++@@@@@@@@@@@@@@",
"...+@@@@@@@@+++++++++++@++++++++++++++++++++++@@@@@@@@@@@@@@",
"#.++@@@@@@@@+++++++++++@++++++++++++++++++++++@@@@@@@@@@@@@@",
"...+@@@@@@@@+++++++++++@++++++++++++++++++++++@@@@@@@@@@@@@@",
"..@+@@@@@@@@+++++++++++@++++++++++++++++++++++@@@@@@@@@@@@@@",
"...+@@@@@@@@+++++++++++@++++++++++++++++++++++@@@@@@@@@@@@@@",
".+.+@@@@@@@@+++++++++++@++++++++++++++++++++++@@@@@@@@@@@@@@",
"...+@@@@@@&******=+-**;@+&*=++>****-+;*********=@@@@=,@@@@@@",
"...+@@@@@@')!~~~~{+]))^@+/)(++))_~:<[}~~|)!~~112=@3425@@@@@@",
"...+@@@@@@')(++++++]))(@+))(++))}+6))}++')(+++78^9')87@@@@@@",
"...+@@@@@@')0aaaab+]cd0ef))(++))}++))}++')(+++@g)hi)j@@@@@@@",
"+.#+@@@@@@'))))))}+]]5)5]k_(++))lmm)no++')(+++@})))no@@@@@@@",
"...+@@@@@@')pqqqq3+]]5)5]]5(++)))))gr+++')(+++@3s)gr@@@@@@@@",
"...+@@@@@@')(++++++]]e0dc]5(++))tuuf++++')(+++@@v)]@@@@@@@@@",
".@@+@@@@@@')(++++++]]+()),5(++))}+++++++')(+++@@v)]@@@@@@@@@",
"...+@@@@@@')!~~~~w+]]+x))+5(++))}+++++++')(+++@@v)]@@@@@@@@@",
"...+@@@@@@&******=+--+;**+,=++**;+++++++&*=+++@@y*-@@@@@@@@@",
"...+@@@@@@@@+++++++++++@++++++++++++++++++++++@@@@@@@@@@@@@@",
"...+@@@@@@@@+++++++++++@++++++++++++++++++++++@@@@@@@@@@@@@@",
"...+@@@@@@@@+++++++++++@++++++++++++++++++++++@@@@@@@@@@@@@@",
"..++@@@@@@@@+++++++++++@++++++++++++++++++++++@@@@@@@@@@@@@@",
"...+@@@@@@@@+++++++++++@++++++++++++++++++++++@@@@@@@@@@@@@@",
".@.+@@@@@@@@+++++++++++@++++++++++++++++++++++@@@@@@@@@@@@@@",
"...+@@@@@@@@+++++++++++@++++++++++++++++++++++@@@@@@@@@@@@@@",
"..@+@@@@@@@@+++++++++++@++++++++++++++++++++++@@@@@@@@@@@@@@",
"...+@@@@@@@@+++++++++++@++++++++++++++++++++++@@@@@@@@@@@@@@",
"...+@@@@@@@@+++++++++++@++++++++++++++++++++++@@@@@@@@@@@@@@",
"..@+@@@@@@@@+++++++++++@++++++++++++++++++++++@@@@@@@@@@@@@@",
"..@+@@@@@@@@+++++++++++@++++++++++++++++++++++@@@@@@@@@@@@@@",
".+.+@@@@@@@@+++++++++++@++++++++++++++++++++++@@@@@@@@@@@@@@",
"...+@@@@@@@@+++++++++++@++++++++++++++++++++++@@@@@@@@@@@@@@",
"...+@@@@@@@@+++++++++++@++++++++++++++++++++++@@@@@@@@@@@@@@",
".@.+@@@@@@@@+++++++++++@++++++++++++++++++++++@@@@@@@@@@@@@@",
"...+@@@@@@@@+++++++++++@++++++++++++++++++++++@@@@@@@@@@@@@@",
"...+@@@@@@@@+++++++++++@++++++++++++++++++++++@@@@@@@@@@@@@@",
"+.#+@@@@@@@@+++++++++++@++++++++++++++++++++++@@@@@@@@@@@@@@",
"...+@@@@@@@@+++++++++++@++++++++++++++++++++++@@@@@@@@@@@@@@",
"...+@@@@@@@@+++++++++++@++++++++++++++++++++++@@@@@@@@@@@@@@",
"...+@@@@@@@@+++++++++++@++++++++++++++++++++++@@@@@@@@@@@@@@",
"...+@@@@@@@@+++++++++++@++++++++++++++++++++++@@@@@@@@@@@@@@",
"...+@@@@@@@@+++++++++++@++++++++++++++++++++++@@@@@@@@@@@@@@",
".+.+@@@@@@@@+++++++++++@++++++++++++++++++++++@@@@@@@@@@@@@@"};
