/* XPM */
static char * enhed_xpm[] = {
"35 48 15 1",
" 	c None",
".	c #000000",
"+	c #1A0000",
"@	c #0E0000",
"#	c #0B0000",
"$	c #010000",
"%	c #1B0000",
"&	c #530000",
"*	c #DC0000",
"=	c #F90000",
"-	c #C10000",
";	c #360000",
">	c #6E0000",
",	c #A60000",
"'	c #890000",
"...................................",
"...................................",
"...................................",
"...................................",
"...................................",
"...................................",
"...................................",
"...................................",
"........+@.........................",
"........#$.........................",
"........$..........................",
"...................................",
"...................................",
"...................................",
"...................................",
"...................................",
"...................................",
"...................................",
"..........................%&%......",
".........................%*=&......",
"........................&*==&......",
".......................&=*-=&......",
".......................;>.,=&......",
"..........................,=&......",
"..................,===&...,=&......",
"..................,===&...,=&......",
"..........................,=&......",
".........%,*===->.........,=&......",
"........&========,........>,;......",
"........*==>&&>===>................",
"........===>...;&..................",
"........-====,>;...................",
"........&=======*>.................",
".........%'======='................",
"............;>,===*................",
".......%,,-....>===................",
".......%===,&&&-==,................",
"........&*=======*%................",
".........%'-===->..................",
"...................................",
"...................................",
"...................................",
"...................................",
"...................................",
"...................................",
"...................................",
"...................................",
"..................................."};
