/* XPM */
static char *exit[] = {
/* width height num_colors chars_per_pixel */
"    84    40        2            1",
/* colors */
". c #00b400",
"# c #ffffff",
/* pixels */
"....................................................................................",
"....................................................................................",
"....................................................................................",
"....................................................................................",
"....................................................................................",
"....................................................................................",
".............................................................#################......",
".............................................................#################......",
".....................#####...................................#################......",
".....................######..................................#################......",
"....................########.................................#################......",
"...................#########.................................#################......",
"...................#########.................................#################......",
"....................########.................................#################......",
".....................######.......................##.........#################......",
".............#############........................###........#################......",
"............############...........###################.......#################......",
"...........##############..........####################......#################......",
"...........###############.........#####################.....#################......",
"..........####....#########........####################......#################......",
".........####.....####.######......###################.......#################......",
"..........##.....####...#####......##################........#################......",
"................#####....#####....................###........#################......",
"................####......###.....................##.........#################......",
"...............#####..............................#..........#################......",
"...............#####.........................................#################......",
"...............######........................................#################......",
".......#......########.......................................#################......",
"......####...###########.....................................#################......",
"......#####.#####.######.....................................#################......",
".......#########...######....................................#################......",
"........#######......#####...................................#################......",
"..........####........#####..................................#################......",
"...........###........####...................................#################......",
".....................####...........................................................",
"....................####............................................................",
"...................#####............................................................",
"...................####.............................................................",
"....................##..............................................................",
"...................................................................................."
};
