/* XPM */
static char * rpu239on_xpm[] = {
"60 60 498 2",
"  	c None",
". 	c #F6FF00",
"+ 	c #F6FE00",
"@ 	c #F7FF00",
"# 	c #FCFF17",
"$ 	c #F7FE00",
"% 	c #F6FD00",
"& 	c #F6F400",
"* 	c #F6F000",
"= 	c #F6F100",
"- 	c #F6F500",
"; 	c #F7F400",
"> 	c #F7FD00",
", 	c #F7F700",
"' 	c #F6E500",
") 	c #F6CA00",
"! 	c #F6B000",
"~ 	c #F6BE00",
"{ 	c #F6E200",
"] 	c #F6FA00",
"^ 	c #F6E300",
"/ 	c #F6C000",
"( 	c #F7CA00",
"_ 	c #F7E500",
": 	c #F7E100",
"< 	c #F6B800",
"[ 	c #F97B00",
"} 	c #FC5900",
"| 	c #FA7E00",
"1 	c #F6C300",
"2 	c #F6F300",
"3 	c #F6EF00",
"4 	c #F6C500",
"5 	c #FC5A00",
"6 	c #F97E00",
"7 	c #F7B500",
"8 	c #F7DB00",
"9 	c #F8AA00",
"0 	c #FD5900",
"a 	c #FE2600",
"b 	c #FE1700",
"c 	c #FE3B00",
"d 	c #FA8C00",
"e 	c #F6D700",
"f 	c #F6F800",
"g 	c #F6F900",
"h 	c #F6DC00",
"i 	c #FA8B00",
"j 	c #FE3D00",
"k 	c #FE1500",
"l 	c #FE2700",
"m 	c #F8A700",
"n 	c #F7E000",
"o 	c #FD5A00",
"p 	c #FE2100",
"q 	c #FE0800",
"r 	c #FE0100",
"s 	c #FE1D00",
"t 	c #FC5700",
"u 	c #F7B100",
"v 	c #F6E900",
"w 	c #F6FB00",
"x 	c #F7BA00",
"y 	c #FC6100",
"z 	c #FE1F00",
"A 	c #FF0800",
"B 	c #FF2100",
"C 	c #FD5C00",
"D 	c #F8A400",
"E 	c #F7F600",
"F 	c #F7DD00",
"G 	c #F7B000",
"H 	c #FD5100",
"I 	c #FE0900",
"J 	c #FE0000",
"K 	c #FE0B00",
"L 	c #FE2900",
"M 	c #FC7300",
"N 	c #F6CB00",
"O 	c #F6F200",
"P 	c #F6D800",
"Q 	c #F88E00",
"R 	c #FE3200",
"S 	c #FE0C00",
"T 	c #FF0000",
"U 	c #FF0900",
"V 	c #FF2200",
"W 	c #FD5500",
"X 	c #F7AD00",
"Y 	c #F7DC00",
"Z 	c #F8A500",
"` 	c #FD5700",
" .	c #FF1C00",
"..	c #FE4200",
"+.	c #F89F00",
"@.	c #F6DD00",
"#.	c #F6FC00",
"$.	c #F6E100",
"%.	c #F6AA00",
"&.	c #FD4D00",
"*.	c #FE1400",
"=.	c #FE0200",
"-.	c #F8A200",
";.	c #F7FB00",
">.	c #FF2300",
",.	c #FF0100",
"'.	c #FE0400",
").	c #FE2300",
"!.	c #FB7400",
"~.	c #F6C700",
"{.	c #FA7500",
"].	c #FE0300",
"^.	c #F7ED00",
"/.	c #F7C000",
"(.	c #FD6300",
"_.	c #FF2000",
":.	c #FF0700",
"<.	c #FE3E00",
"[.	c #F98F00",
"}.	c #F7F500",
"|.	c #F7D300",
"1.	c #F98D00",
"2.	c #FE3600",
"3.	c #FE1E00",
"4.	c #FC5F00",
"5.	c #F6BF00",
"6.	c #F6EA00",
"7.	c #FC6000",
"8.	c #F7E800",
"9.	c #F7A200",
"0.	c #FC4F00",
"a.	c #FF1300",
"b.	c #FF0300",
"c.	c #FE2C00",
"d.	c #FC7E00",
"e.	c #F6CE00",
"f.	c #F6CF00",
"g.	c #F88700",
"h.	c #FE0A00",
"i.	c #FF1500",
"j.	c #FE4B00",
"k.	c #F9A200",
"l.	c #F7E400",
"m.	c #F7CB00",
"n.	c #FB6C00",
"o.	c #FF2400",
"p.	c #F7FC00",
"q.	c #F6E700",
"r.	c #FD4E00",
"s.	c #FE0F00",
"t.	c #FF0500",
"u.	c #FB6E00",
"v.	c #F7CC00",
"w.	c #F7AB00",
"x.	c #FF4000",
"y.	c #FF1000",
"z.	c #FE0500",
"A.	c #FE2B00",
"B.	c #FA7B00",
"C.	c #F7CE00",
"D.	c #F6F600",
"E.	c #F7AC00",
"F.	c #F7E300",
"G.	c #F7F200",
"H.	c #F6C600",
"I.	c #FC7000",
"J.	c #FF1E00",
"K.	c #FE1100",
"L.	c #FE4300",
"M.	c #F8A300",
"N.	c #F7E200",
"O.	c #F8A100",
"P.	c #FC7100",
"Q.	c #F7C500",
"R.	c #F7F300",
"S.	c #F99C00",
"T.	c #FF0A00",
"U.	c #FE2200",
"V.	c #FB6B00",
"W.	c #F7C400",
"X.	c #F6EC00",
"Y.	c #F6C400",
"Z.	c #FB6F00",
"`.	c #F7E700",
" +	c #F7C800",
".+	c #FB7000",
"++	c #FF0400",
"@+	c #FE3500",
"#+	c #FB8600",
"$+	c #F6D300",
"%+	c #F6F700",
"&+	c #F6D100",
"*+	c #F88B00",
"=+	c #F8AB00",
"-+	c #FE4600",
";+	c #FF1100",
">+	c #FD5800",
",+	c #F8AD00",
"'+	c #F6EB00",
")+	c #F6E000",
"!+	c #F8A000",
"~+	c #FD4C00",
"{+	c #FE1300",
"]+	c #FF4600",
"^+	c #F7EC00",
"/+	c #FCFD17",
"(+	c #F88F00",
"_+	c #FE3000",
":+	c #FF3500",
"<+	c #F98B00",
"[+	c #F96E00",
"}+	c #FE2800",
"|+	c #FF3000",
"1+	c #FCFC17",
"2+	c #FD6800",
"3+	c #FF0200",
"4+	c #FF3800",
"5+	c #F98500",
"6+	c #F6BC00",
"7+	c #F97200",
"8+	c #FE0600",
"9+	c #FF1D00",
"0+	c #FCF717",
"a+	c #F7AF00",
"b+	c #F6ED00",
"c+	c #FC5800",
"d+	c #F7C300",
"e+	c #FCF517",
"f+	c #F6B600",
"g+	c #FE0D00",
"h+	c #FE3A00",
"i+	c #FA9200",
"j+	c #F6D900",
"k+	c #F6C900",
"l+	c #F99300",
"m+	c #F99200",
"n+	c #F6C800",
"o+	c #F6DA00",
"p+	c #FA9000",
"q+	c #FF0D00",
"r+	c #FCF117",
"s+	c #F6DF00",
"t+	c #F99A00",
"u+	c #FE1900",
"v+	c #F7BD00",
"w+	c #F6C200",
"x+	c #FB7E00",
"y+	c #FD4800",
"z+	c #FE3700",
"A+	c #FD4A00",
"B+	c #FB7C00",
"C+	c #F6BD00",
"D+	c #FE1600",
"E+	c #F99900",
"F+	c #FCED17",
"G+	c #F6D200",
"H+	c #FB8100",
"I+	c #FF2A00",
"J+	c #F89500",
"K+	c #F7C600",
"L+	c #FB7A00",
"M+	c #FE3800",
"N+	c #FCE917",
"O+	c #FB7900",
"P+	c #FE1B00",
"Q+	c #FC5E00",
"R+	c #F7B700",
"S+	c #F7EE00",
"T+	c #F99400",
"U+	c #F7B900",
"V+	c #FC5C00",
"W+	c #FE1A00",
"X+	c #FCE717",
"Y+	c #F6D000",
"Z+	c #FF2500",
"`+	c #FA7C00",
" @	c #F7F000",
".@	c #F6CC00",
"+@	c #F99100",
"@@	c #FE5000",
"#@	c #FF3200",
"$@	c #FF3100",
"%@	c #FE3100",
"&@	c #FE5900",
"*@	c #F6E400",
"=@	c #FE4900",
"-@	c #F99D00",
";@	c #FE4E00",
">@	c #F99000",
",@	c #FCEC17",
"'@	c #F6C100",
")@	c #F99F00",
"!@	c #F98C00",
"~@	c #F98A00",
"{@	c #FE1000",
"]@	c #FE4700",
"^@	c #F9A400",
"/@	c #FCF317",
"(@	c #F7DE00",
"_@	c #F6DE00",
":@	c #FE2000",
"<@	c #FD6000",
"[@	c #F7DF00",
"}@	c #F7F900",
"|@	c #FE4100",
"1@	c #FB7B00",
"2@	c #FB7F00",
"3@	c #FD4B00",
"4@	c #F6E800",
"5@	c #F6D600",
"6@	c #F6D500",
"7@	c #F79F00",
"8@	c #F87800",
"9@	c #F88A00",
"0@	c #F89E00",
"a@	c #F6B700",
"b@	c #FB5500",
"c@	c #FE2D00",
"d@	c #FE2A00",
"e@	c #FB5400",
"f@	c #F6B200",
"g@	c #F7D000",
"h@	c #FB8200",
"i@	c #FE0700",
"j@	c #FE2400",
"k@	c #FE0E00",
"l@	c #FA6900",
"m@	c #F98400",
"n@	c #FD5600",
"o@	c #FF1700",
"p@	c #FE4800",
"q@	c #F9A000",
"r@	c #FA7D00",
"s@	c #FF0600",
"t@	c #FB6D00",
"u@	c #BCC300",
"v@	c #919600",
"w@	c #9FA500",
"x@	c #F79600",
"y@	c #FC4200",
"z@	c #E10000",
"A@	c #960000",
"B@	c #B40000",
"C@	c #FE3C00",
"D@	c #BCBF00",
"E@	c #E8EF00",
"F@	c #CBD200",
"G@	c #E8F000",
"H@	c #696D00",
"I@	c #000000",
"J@	c #0A0A00",
"K@	c #484B00",
"L@	c #C5CB00",
"M@	c #FD6200",
"N@	c #350000",
"O@	c #150000",
"P@	c #4B0000",
"Q@	c #E50300",
"R@	c #484000",
"S@	c #1F1F00",
"T@	c #3E4000",
"U@	c #939800",
"V@	c #616400",
"W@	c #292A00",
"X@	c #333500",
"Y@	c #484A00",
"Z@	c #1F2000",
"`@	c #7C8000",
" #	c #F6DB00",
".#	c #F89B00",
"+#	c #2A0000",
"@#	c #4A0000",
"##	c #240000",
"$#	c #FE2F00",
"%#	c #292300",
"&#	c #484500",
"*#	c #B0B600",
"=#	c #E2E900",
"-#	c #4A4D00",
";#	c #B6B617",
">#	c #BCC200",
",#	c #141500",
"'#	c #7A7E00",
")#	c #656900",
"!#	c #7A7900",
"~#	c #655400",
"{#	c #683100",
"]#	c #950000",
"^#	c #D10000",
"/#	c #B30000",
"(#	c #952800",
"_#	c #CD8A00",
":#	c #D9E100",
"<#	c #4B4B09",
"[#	c #232400",
"}#	c #232200",
"|#	c #F0C200",
"1#	c #CBCE00",
"2#	c #999E00",
"3#	c #0C0C00",
"4#	c #060600",
"5#	c #767A00",
"6#	c #EEF600",
"7#	c #B4BA00",
"8#	c #121300",
"9#	c #231F00",
"0#	c #A90000",
"a#	c #7A0000",
"b#	c #D48200",
"c#	c #383900",
"d#	c #D5DC00",
"e#	c #3A3C00",
"f#	c #181900",
"g#	c #8B8F00",
"h#	c #231900",
"i#	c #570000",
"j#	c #3C0000",
"k#	c #AB0000",
"l#	c #110000",
"m#	c #080000",
"n#	c #DC0000",
"o#	c #DB5800",
"p#	c #0E0A00",
"q#	c #0E0D00",
"r#	c #313300",
"s#	c #848900",
"t#	c #F2FA00",
"u#	c #E6ED00",
"v#	c #505300",
"w#	c #080800",
"x#	c #9BA000",
"y#	c #231300",
"z#	c #B10000",
"A#	c #5E0000",
"B#	c #190000",
"C#	c #B80000",
"D#	c #FE4400",
"E#	c #C9CF00",
"F#	c #252600",
"G#	c #727500",
"H#	c #ACB100",
"I#	c #F89400",
"J#	c #231000",
"K#	c #A50000",
"L#	c #A40000",
"M#	c #A00000",
"N#	c #0C0000",
"O#	c #BE0000",
"P#	c #FE3900",
"Q#	c #F89100",
"R#	c #EAF200",
"S#	c #75750F",
"T#	c #BCA900",
"U#	c #BC7600",
"V#	c #1A0D00",
"W#	c #8F0000",
"X#	c #060000",
"Y#	c #800000",
"Z#	c #C20000",
"`#	c #DC0500",
" $	c #0F0000",
".$	c #751400",
"+$	c #C23E00",
"@$	c #BC7800",
"#$	c #BCAA00",
"$$	c #C1C700",
"%$	c #C6C717",
"&$	c #808400",
"*$	c #FE3300",
"=$	c #6D1900",
"-$	c #1D1E00",
";$	c #B8BE00",
">$	c #F0F800",
",$	c #808100",
"'$	c #353600",
")$	c #1D1D00",
"!$	c #F89200",
"~$	c #FD6B00",
"{$	c #FE4C00",
"]$	c #1E0900",
"^$	c #1E0A00",
"/$	c #1D0D00",
"($	c #1D1200",
"_$	c #1D1600",
":$	c #7B5000",
"<$	c #F8AC00",
"[$	c #998400",
"}$	c #D1D800",
"|$	c #F6EE00",
"1$	c #F6CD00",
"2$	c #F7B300",
"3$	c #FA9400",
"4$	c #FB7D00",
"5$	c #FB7700",
"6$	c #FB7600",
"7$	c #FB7500",
"8$	c #F6B300",
"9$	c #F6D400",
". . . + @ @ @ @ @ @ @ @ + + + + + + + + + + + @ + + + + + + + + + + + + + + + + + + + + + + @ @ @ @ @ @ @ @ @ @ @ @ @ # ",
". @ . + @ @ @ @ @ @ @ @ + + + + + + + + + + + @ + + + + + + + + + + + + + + + + + + + + + + @ @ @ @ @ @ @ @ @ @ @ @ @ # ",
". . . + @ @ @ @ @ @ @ @ + + + + + + + + + + + @ + + + + + + + + + + + + + + + + + + + + + + @ @ @ @ @ @ @ @ @ @ @ @ @ # ",
". . . + @ @ @ @ @ @ @ @ + + + + + + + + + + + @ + + + + + + + + + + + + + + + + + + + + + + @ @ @ @ @ @ @ @ @ @ @ @ @ # ",
". $ . + @ @ @ @ @ @ @ $ % & * = - + + + + + + @ + + + + + + + + + + + + + + + + + + + - = * ; > $ @ @ @ @ @ @ @ @ @ @ # ",
". @ . + @ @ @ @ @ @ $ , ' ) ! ~ { ] + + + + + @ + + + + + + + + + + + + + + + + + + ] ^ / ! ( _ , $ @ @ @ @ @ @ @ @ @ # ",
". . . + @ @ @ @ @ @ , : < [ } | 1 2 + + + + + @ + + + + + + + + + + + + + + + + + + 3 4 | 5 6 7 : , @ @ @ @ @ @ @ @ @ # ",
". . . + @ @ @ @ $ , 8 9 0 a b c d e f + + + + @ + + + + + + + + + + + + + + + + + g h i j k l 0 m 8 , $ @ @ @ @ @ @ @ # ",
". + . + @ @ @ $ , n m o p q r s t u v w + + + @ + + + + + + + + + + + + + + + + % = x y z r A B C D n , $ @ @ @ @ @ @ # ",
". . . + @ @ $ E F G H B I J J K L M N O + + + @ + + + + + + + + + + + + + + + + & P Q R S J T U V W X Y E $ @ @ @ @ @ # ",
". . . + @ $ , Y Z `  .A J J J r K ..+.@.#.+ + @ + + + + + + + + + + + + + + + #.$.%.&.*.=.J T T A  .o -.8 , $ @ @ @ @ # ",
". . . + @ ;._ G o >.A ,.J J J J '.).!.4 g + + @ + + + + + + + + + + + + + + + - ~.{.l ].J J T T ,.A >.o G _ ;.@ @ @ @ # ",
". . $ + > ^./.(._.:.T T J J J J J K <.[.^ g + @ + + + + + + + + + + + + + + g ^ [.<.K J J J T T T T :._.(./.^.> @ @ @ # ",
". . . + }.|.1.2.U T T T J J J J J '.3.4.5.6.% @ + + + + + + + + + + + + + % 6.5.7.3.'.J J J T T T T T U 2.1.|.}.@ @ @ # ",
". . . w 8.9.0.a.b.T T T J J J J J J K c.d.e.- @ + + + + + + + + + + + + + - f.g.L h.J J J J T T T T T b.i.j.k.l.;.@ @ # ",
". . + & m.n.o.b.T T T T J J J J J J r S H D 6.p.+ + + + + + + + + + + + #.q.D r.s.J J J J J T T T T T T t.o.u.v.E $ @ # ",
". $ #.^ w.x.y.,.T T T T J J J J J J J z.A.B.C.E + + + + + + + + + + + + D.C.B.A.z.J J J J J T T T T T T ,.y.x.E.F.p.@ # ",
". . G.H.I.J.b.T T T T T J J J J J J J J K.L.M.N.g + + + + + + + + + + g ' O.L.K.J J J J J J T T T T T T T b.J.P.Q.R.@ # ",
". #.' S.j.T.,.T T T T T J J J J J J J J z.U.V.W.X.+ + + + + + + + + + X.Y.Z.U.z.J J J J J J T T T T T T T ,.T.j.S.`.p.# ",
". -  +.+>.++T T T T T T J J J J J J J J r K @+#+$+f + + + + + + + + %+&+*+R K r J J J J J J T T T T T T T T ++>..+ +}.# ",
"> X.=+-+;+T T T T T T T J J J J J J J J J =.*.>+,+'+% + + + + + + %+)+!+~+{+=.J J J J J J J T T T T T T T T T ;+]+=+^+/+",
"] h (+_+:.T T T T T T T J J J J J J J J J J h.:+<+)+w + + + + + % 3 ~.[+}+q J J J J J J J J T T T T T T T T T :.|+Q Y 1+",
"%+N 2+s 3+T T T T T T T J J J J J J J J J J h.4+5+$.w + + + + + % '+6+7+A.8+J J J J J J J J T T T T T T T T T 3+9+2+m.0+",
"- 1 o k T T T T T T T T J J J J J J J J J ].b 5 a+b+f 2 '+q.q.'+2 O $.9.c+b ].J J J J J J J T T T T T T T T T T i.o d+e+",
"'+f+&.g+T T T T T T T T J J J J J J J J J q h+i+j+D.6.k+Z l+m+D n+6.D.o+p+h+q J J J J J J J T T T T T T T T T T q+&.7 r+",
"s+t+c q T T T T T T T T J J J J J J J J =.u+C v+X.6.w+x+y+2.z+A+B+Y.6.'+C+C D+=.J J J J J J T T T T T T T T T T A c E+F+",
"G+H+I+].T T T T T T T T J J J J J J J J S 2.J+Y * K+L+2.g+'.z.s.R B+Q.3 @.J+M+h.J J J J J J T T T T T T T T T T b.I+H+N+",
"f.O+>.J T T T T T T T T J J J J J J J J P+Q+R+S+@.T+j s.=.J J =.s.<.l+$.'+U+V+W+J J J J J J T T T T T T T T T T T >.O+X+",
"Y+O+Z+r ,.,.,.,.,.,.,.,.r r r r r r r r l `+&+ @N (.3.].J J J J ].3.(..@* Y+`+l r r r r r r ,.,.,.,.,.,.,.,.,.,.,.Z+O+X+",
"e +@@@_+#@#@|+$@#@#@|+#@R %@%@R R _+R R &@t+*@ @~ =@{+J J J J J J {+=@~ * )+-@&@_+R R %@%@R #@|+#@#@$@$@#@#@|+#@#@;@>@,@",
"q.'@)@<+!@!@<+!@!@!@~@!@!@<+!@!@!@~@!@!@k.~.'+ @~ =@{@J J J J J J K.]@~ * X.n+^@~@!@!@<+!@!@!@~@!@!@!@<+!@!@~@!@!@-@/./@",
"f * *@)+: : n (@N.(@: n { s+_@{ s+$.s+{ ' O g }.N (.3.r J J J J ].:@<@N - g O ' $.)+{ s+_@{ [@: [@N.(@[@N.n : (@N.l. @1+",
". @ @ + @ @ @ @ @ @ @ @ + + + + + + + + + + + }@{ l+|@S J J J =.s.<.l+{ g + + + + + + + + + @ @ @ @ @ @ @ @ @ @ @ @ @ # ",
". . . + @ @ @ @ @ @ @ @ + + + + + + + + + + + $ O Q.B+R s.z.z.s.R 1@Q.O + + + + + + + + + + @ @ @ @ @ @ @ @ @ @ @ @ @ # ",
". . . + @ @ @ @ @ @ @ @ + + + + + + + + + + + @ w 6.Y.2@3@2.z+A+B+H.4@w + + + + + + + + + + @ @ @ @ @ @ @ @ @ @ @ @ @ # ",
". . . + @ @ @ @ @ @ @ @ + + + + + + + + + + + @ + ] 6.n+O.l+T+M.~.'+] + + + + + + + + + + + @ @ @ @ @ @ @ @ @ @ @ @ @ # ",
". . . + @ @ @ @ @ @ @ @ + + + + + + + + + + + @ % ] %+2 v q.' X.* - ] % + + + + + + + + + + @ @ @ @ @ @ @ @ @ @ @ @ @ # ",
". . . + @ @ @ @ @ @ @ @ + + + + + + + + + + + p.& @.5@P q.4@'+q.o+6@@.& #.+ + + + + + + + + @ @ @ @ @ @ @ @ @ @ @ @ @ # ",
". . + + @ @ @ @ @ @ @ @ + + + + + + + + + + + , o+7@8@9@0@O.-.0@9@8@7@o+D.+ + + + + + + + + @ @ @ @ @ @ @ @ @ @ @ @ @ # ",
". . . + @ @ @ @ @ @ @ @ + + + + + + + + + + % 8.a@b@A.c@2.z+h+2.c@d@e@f@' ] + + + + + + + + @ @ @ @ @ @ @ @ @ @ @ @ @ # ",
". @ . + @ @ @ @ @ @ @ @ + + + + + + + + + + D.g@h@d@q z.8+i@i@8+z.q j@!.Q.3 + + + + + + + + @ @ @ @ @ @ @ @ @ @ @ @ @ # ",
". . . + @ @ @ @ @ @ @ @ + + + + + + + + + f $.O.&.k@=.J J J J J J =.h.c i o+f + + + + + + + @ @ @ @ @ @ @ @ @ @ @ @ @ # ",
". . @ + @ @ @ @ @ @ @ @ + + + + + + + + % * ~ l@).z.J J J J J J J J =.W+C U+b+% + + + + + + @ @ @ @ @ @ @ @ @ @ @ @ @ # ",
". . . + @ @ @ @ @ @ @ @ + + + + + + + + f e !@%@q J J J J J J J J J J h.c.m@&+O + + + + + + @ @ @ @ @ @ @ @ @ @ @ @ @ # ",
". . . + @ @ @ @ @ @ @ @ + + + + + + + w 6.f+n@o@=.J J J J J J J J J J =.{+p@q@s+w + + + + + @ @ @ @ @ @ @ @ @ @ @ @ @ # ",
". . @ + @ @ @ @ @ @ @ @ + + + + + + + 2 n+r@c@s@J J J J J J J J J J J J z.:@t@/.O + + + + + @ @ @ @ @ @ @ @ @ @ @ @ @ # ",
". u@v@v@v@v@v@w@@ @ @ @ + + + + + + ] ^ x@y@g+3+J J J J J J z@A@A@A@A@B@J K C@l+)+D@v@v@v@v@v@E@@ @ @ @ @ F@v@v@v@G@@ # ",
". H@I@I@I@I@I@J@K@L@@ @ + + + + + + O 4 M@z =.T J J J J J J N@I@I@I@I@O@P@Q@z M@R@S@I@I@I@I@I@T@U@@ @ @ V@W@I@I@I@T@U@# ",
". H@I@I@X@Y@Z@I@I@`@@ @ + + + + + ]  #.#@+K J T J J J J J J I@+#@#@#O@I@I@##K $#I@%#&#Y@Y@X@I@I@I@*#=#-#I@I@X@Y@Z@I@I@;#",
". H@I@I@*#@ >#,#I@I@@ @ '#)#)#+ #.!#~#{#W+].J T J J J J J J ]#^#J J /#I@I@##].k (#_#^ #.+ :#T@I@I@*#*#I@I@T@:#@ >#,#I@<#",
". H@I@I@*#@ @ [#I@I@@ @ [#I@I@+ & }#I@I@i@J J T J J J J J J J J J J J I@I@##J z.a !.|#1#F@2#3#4#5#6#*#I@I@H@@ @ @ [#I@I@",
". H@I@I@*#@ 7#8#I@I@@ @ [#I@I@w ' 9#I@I@].J J T J J J J J J J J J J 0#I@I@a#J J {@|@b#I@I@I@I@5#@ @ *#I@I@c#d#@ @ [#I@I@",
". H@I@I@W@e#f#I@4#g#@ @ [#I@I@2 k+h#I@I@J J i#j#j#j#j#i#J J J J J k#l#I@m#n#J J '.).o#p#q#J@I@r#s#t#u#v#I@I@W@e#e#w#I@I@",
"+ H@I@I@I@I@I@3#x#@ @ @ [#I@I@$.D y#I@I@J J ##I@I@I@I@##J J J J z#A#I@B#C#J J J r S D#D ' E#F#I@I@*#@ x#-#I@I@I@r#3#I@I@",
". H@I@I@G#w@w@H#@ @ @ @ [#I@I@o+I#J#I@I@J J z#K#L#L#L#z#J J J M#N#I@I@O#J J J J r I P#Q#j++ H@I@I@*#@ @ R#w@w@w@5#3#I@S#",
". H@I@I@*#@ @ @ @ @ @ @ [#I@I@T#U#V#I@I@{@q =.,.J J J J J J W#X#I@I@Y#Z#Z#Z#`#{@ $.$+$@$#$g#4#I@f#$$@ d#>#>#>#g#4#I@f#%$",
". H@I@I@*#@ @ @ @ @ @ @ &$I@I@I@I@I@I@I@=@*$3.;+8+].J J J J I@I@I@I@I@I@I@I@=$=@I@I@I@I@I@I@I@8#7#@ @ H@I@I@I@I@I@8#7## ",
". '#-$-$;$@ @ @ @ @ @ @ >$&$-$-$,$'$)$)$,+!$~${$2.a :@:@:@:@]$]$]$]$^$/$($_$:$<$[$)$-$-$-$-$&$}$@ @ @ '#-$-$-$-$&$}$@ # ",
". . . + @ @ @ @ @ @ @ @ + + + + + + #.] |$)+1$2$3$4$5$!.5$5$6$7$5$5$4$3$8$1$s+b+] #.+ + + + @ @ @ @ @ @ @ @ @ @ @ @ @ # ",
". + . + @ @ @ @ @ @ @ @ + + + + + + + + + #.%+^+_@&+.@e.1$1$N f.N 1$9$@.6.%+w + + + + + + + @ @ @ @ @ @ @ @ @ @ @ @ @ # "};
