/* XPM */
static char * ra220on_xpm[] = {
"60 60 48 1",
" 	c #F7DEFBEE0000",
".	c #FFFFFBEE1040",
"X	c #F7DEF3CE0000",
"o	c #F7DEE38D0000",
"O	c #F7DECB2B0000",
"+	c #F7DEB2CA0000",
"@	c #F7DEBAEA0000",
"#	c #F7DEC30B0000",
"$	c #FFFF79E70000",
"%	c #FFFF59650000",
"&	c #F7DEEBAD0000",
"*	c #F7DEDB6C0000",
"=	c #FFFFAAAA0000",
"-	c #FFFF20810000",
";	c #FFFF10400000",
":	c #FFFF38E30000",
">	c #FFFF8A280000",
",	c #FFFF08200000",
"<	c #FFFF00000000",
"1	c #FFFF18610000",
"2	c #FFFF51440000",
"3	c #FFFF61850000",
"4	c #FFFFA2890000",
"5	c #FFFF28A20000",
"6	c #FFFF71C60000",
"7	c #FFFF30C20000",
"8	c #F7DEAAAA0000",
"9	c #FFFF41030000",
"0	c #FFFF49240000",
"q	c #FFFF92480000",
"w	c #F7DED34C0000",
"e	c #F7DEA2890000",
"r	c #FFFF82070000",
"t	c #FFFF69A60000",
"y	c #FFFF9A690000",
"u	c #FFFFF3CE1040",
"i	c #FFFFEBAD1040",
"p	c #FFFFE38D1040",
"a	c #F7DE9A690000",
"s	c #000000000000",
"d	c #FFFFFBEE0000",
"f	c #F7DE92480000",
"g	c #FFFFE38D0000",
"h	c #FFFFBAEA0000",
"j	c #FFFFFBEE0820",
"k	c #FFFFEBAD0000",
"l	c #FFFFB2CA0000",
"z	c #FFFFF3CE0000",
"                                                           .",
"                                                           .",
"                                                           .",
"                                                           .",
"             XXXX                          XXXX            .",
"           XoO+@o                          o#+OoX          .",
"          Xo@$%$#X                        &#$%$+oX         .",
"         X*=%-;:>*                        *>:;-%=*X        .",
"        Xo=%-,<12+&                      X@31<,-%4oX       .",
"       X*+2-,<<,56OX                    X*>7,<<,-28*X      .",
"      X*421,<<<<,94*                    o80;<<<<,1%4*X     .",
"      o+%-,<<<<<<-6#                   XO6-<<<<<<,-%+o     .",
"     &#3-<<<<<<<<,:qo                  oq:,<<<<<<<<-3#&    .",
"    Xw>7,<<<<<<<<<1%#&                &#%1<<<<<<<<<,7>wX   .",
"    &e0;<<<<<<<<<<,5$OX              XOr5,<<<<<<<<<<;04o   .",
"   XOt-<<<<<<<<<<<<,24&              o40,<<<<<<<<<<<<-tOX  .",
"   o8:;<<<<<<<<<<<<<5$OX            XO$5<<<<<<<<<<<<<;:8o  .",
"  X#t1<<<<<<<<<<<<<<;94o            o49;<<<<<<<<<<<<<<16#X .",
"  oy0,<<<<<<<<<<<<<<<-t#&          &#t-<<<<<<<<<<<<<<<,0yo .",
" XO6-<<<<<<<<<<<<<<<<,7rw         Xw>7,<<<<<<<<<<<<<<<<-6OX.",
" &=9;<<<<<<<<<<<<<<<<<;%=&       Xo40;<<<<<<<<<<<<<<<<<;9=&.",
" *q5<<<<<<<<<<<<<<<<<<,7>o       &Ot5,<<<<<<<<<<<<<<<<<<5>*.",
"XO31<<<<<<<<<<<<<<<<<<,7ro       &@65<<<<<<<<<<<<<<<<<<<13Ou",
"X#%;<<<<<<<<<<<<<<<<<<;%+& X&&&&XXoe%;<<<<<<<<<<<<<<<<<<;%#u",
"&+0,<<<<<<<<<<<<<<<<<,:q*X&O4qq4O&X*q:,<<<<<<<<<<<<<<<<<,0+u",
"*y:,<<<<<<<<<<<<<<<<<1%@&&#$9770$#&&@%;<<<<<<<<<<<<<<<<<,:yi",
"wr5<<<<<<<<<<<<<<<<<,7q*X#$7,<<,7$#&*q7,<<<<<<<<<<<<<<<<<5ri",
"w$-<<<<<<<<<<<<<<<<<1%@&*q:,<<<<,:qo&@%1<<<<<<<<<<<<<<<<<-$p",
"w$-<<<<<<<<<<<<<<<<<-$wXO31<<<<<<13OXw$-<<<<<<<<<<<<<<<<<-$p",
"*q0577577757777775772yoX@0;<<<<<<;0@Xoy2577777757777775770qi",
"o#y>>>>>>>>>>>>>>>>>4O&X@0,<<<<<<;9@X&O4>>>>>>>>>>>>>>>>>y#u",
" Xooooo*o*oooo*ooooooX XO31<<<<<<1%OX Xooooo*ooooo*oooo*ooX.",
"                        oq9,<<<<,:qo                       .",
"                        X#$7,<<,7$#X                       .",
"                         &#$0770$#&                        .",
"                          &O4qq4O&                         .",
"                          XX&&o&XX                         .",
"                        X*w*o&&o*w*X                       .",
"                       X*a6>y44y>6a*X                      .",
"                       &@25577:7552+o                      .",
"                      Xwr5,<<<<<<,-6#&                     .",
"                      o40,<<<<<<<<,:>*                     .",
"                     X@t-<<<<<<<<<<1%@&                    .",
"  ssssssss           *>7,<<<<<<<<<<,5rwX                   .",
"  ssssssssss        &+2;<<<<<<<sssss;94o sssss     sssss   .",
"  sss    ssss      XO$5<<<<<<<sssssss1t#sssssss   sssssss  .",
" dsssddd  sss      of9,<<<<<<sss<<<sss:sssdddsss  sssddss  .",
" dsssdddddsss   sssss1<<<<<<<sss<<<sss1sssdddsssdsssddddddd.",
" dsssddddssss  sssssss<<<<<<<<<<<<<sss,54gdddsssdsssddddddd.",
" dssssssssssdddsssh9sss<<<<<<<<<<<sss<<;:=o sssddsssdsssdddj",
" dsssssssss ddd X*3ssss<<<<<<<<<sssss<<<-6sssssddssssssssddd",
" dsss dddsssddd ossssss<<<<<<<<sssss<<<<;sssssdddssssddsssdd",
" dsssdddddsssddXsss<sss<<<<<<<ssss<<<<<<ssssdddddsssdddsssdd",
" dsssdddd sssddsss<<sss<<<<<<<sss<<<<<<<sss4oddddsssdddsssdd",
" dsssddd  sssddsss<<sss<<<<<<sss<<<<<<<sss:q* dddssssddsssdj",
" dsss     sssddssssssss<<<<<<sssssssss<sssssssssddsssssssdd.",
" dsss     sssdddsssrsss;<<<<<sssssssss1sssssssssd  sssssddd.",
" dddd        dddddko=qt07--1--,,,,,,;;2=lwzddddd   ddddddd .",
"                  dd&oO+q$66666666$q+O*&                   .",
"                      Xkkkggggggggkk&X                     ."};
