/* XPM */
static char * radion_xpm[] = {
"60 60 411 2",
"  	c None",
". 	c #F6FF00",
"+ 	c #F6FE00",
"@ 	c #F7FF00",
"# 	c #FCFF16",
"$ 	c #F7FE00",
"% 	c #F6FD00",
"& 	c #F6F400",
"* 	c #F6F000",
"= 	c #F6F100",
"- 	c #F6F500",
"; 	c #F7F400",
"> 	c #F7FD00",
", 	c #F7F700",
"' 	c #F6E600",
") 	c #F6CB00",
"! 	c #F6B000",
"~ 	c #F6BF00",
"{ 	c #F6E200",
"] 	c #F6FA00",
"^ 	c #F6E300",
"/ 	c #F6C100",
"( 	c #F7CB00",
"_ 	c #F7E600",
": 	c #F7E100",
"< 	c #F6B900",
"[ 	c #F97B00",
"} 	c #FC5800",
"| 	c #FA7E00",
"1 	c #F6C400",
"2 	c #F6F300",
"3 	c #F6EF00",
"4 	c #F6C500",
"5 	c #FC5900",
"6 	c #F97D00",
"7 	c #F7B500",
"8 	c #F7DC00",
"9 	c #F8AB00",
"0 	c #FD5800",
"a 	c #FE2500",
"b 	c #FE1600",
"c 	c #FE3A00",
"d 	c #FA8C00",
"e 	c #F6D800",
"f 	c #F6F800",
"g 	c #F6F900",
"h 	c #F6DC00",
"i 	c #FA8B00",
"j 	c #FE3C00",
"k 	c #FE1500",
"l 	c #FE2600",
"m 	c #F8A800",
"n 	c #F7DB00",
"o 	c #F7E000",
"p 	c #FD5900",
"q 	c #FE2000",
"r 	c #FE0800",
"s 	c #FE0100",
"t 	c #FE1C00",
"u 	c #FC5700",
"v 	c #F7B200",
"w 	c #F6E900",
"x 	c #F6FB00",
"y 	c #F7BA00",
"z 	c #FC6100",
"A 	c #FE1E00",
"B 	c #FF0800",
"C 	c #FF2100",
"D 	c #FD5C00",
"E 	c #F8A500",
"F 	c #F7F600",
"G 	c #F7DD00",
"H 	c #F7B100",
"I 	c #FD5100",
"J 	c #FE0900",
"K 	c #FE0000",
"L 	c #FE0B00",
"M 	c #FE2800",
"N 	c #FC7200",
"O 	c #F6CC00",
"P 	c #F6F200",
"Q 	c #F88F00",
"R 	c #FE3100",
"S 	c #FE0C00",
"T 	c #FF0000",
"U 	c #FF0900",
"V 	c #FD5400",
"W 	c #F7AE00",
"X 	c #FD5600",
"Y 	c #FF1C00",
"Z 	c #FE4200",
"` 	c #F8A000",
" .	c #F6DE00",
"..	c #F6FC00",
"+.	c #F6E100",
"@.	c #F6AA00",
"#.	c #FD4C00",
"$.	c #FE1400",
"%.	c #FE0200",
"&.	c #F8A300",
"*.	c #F7FB00",
"=.	c #FF2200",
"-.	c #FF0100",
";.	c #FE0400",
">.	c #FE2200",
",.	c #FB7400",
"'.	c #F6C600",
").	c #F6C800",
"!.	c #FA7500",
"~.	c #FE0300",
"{.	c #FF2300",
"].	c #F7EE00",
"^.	c #F7C100",
"/.	c #FD6100",
"(.	c #FF2000",
"_.	c #FF0700",
":.	c #F99000",
"<.	c #F6E400",
"[.	c #F7F500",
"}.	c #F7D300",
"|.	c #F98E00",
"1.	c #FE3600",
"2.	c #FE1D00",
"3.	c #FC5F00",
"4.	c #F6C000",
"5.	c #F6EA00",
"6.	c #F7E900",
"7.	c #F7A300",
"8.	c #FC4E00",
"9.	c #FF1300",
"0.	c #FF0300",
"a.	c #FE2B00",
"b.	c #FC7D00",
"c.	c #F6CF00",
"d.	c #F88700",
"e.	c #FE0A00",
"f.	c #FF1500",
"g.	c #FE4A00",
"h.	c #F9A200",
"i.	c #F7E500",
"j.	c #FB6C00",
"k.	c #FF2400",
"l.	c #FF0200",
"m.	c #FD5000",
"n.	c #F8A400",
"o.	c #F7FC00",
"p.	c #F6E700",
"q.	c #FD4D00",
"r.	c #FE0E00",
"s.	c #FF0500",
"t.	c #FB6D00",
"u.	c #F7CD00",
"v.	c #F7AD00",
"w.	c #FF3F00",
"x.	c #FF1000",
"y.	c #FE0500",
"z.	c #FE2A00",
"A.	c #FA7B00",
"B.	c #F7CF00",
"C.	c #F6F600",
"D.	c #F7E300",
"E.	c #F7F200",
"F.	c #F6C700",
"G.	c #FC6F00",
"H.	c #FF1E00",
"I.	c #FE1100",
"J.	c #FE4100",
"K.	c #F8A100",
"L.	c #FC7000",
"M.	c #F7C600",
"N.	c #F7F300",
"O.	c #F6E500",
"P.	c #F99C00",
"Q.	c #FF0A00",
"R.	c #FE2100",
"S.	c #FB6B00",
"T.	c #F7C500",
"U.	c #F6EC00",
"V.	c #FB6F00",
"W.	c #F7E700",
"X.	c #F7C800",
"Y.	c #FB7100",
"Z.	c #FF0400",
"`.	c #FE3400",
" +	c #FB8600",
".+	c #F6D400",
"++	c #F6F700",
"@+	c #F6D200",
"#+	c #F88A00",
"$+	c #F6ED00",
"%+	c #F8AC00",
"&+	c #FE4500",
"*+	c #FF1100",
"=+	c #F8AE00",
"-+	c #F6E000",
";+	c #FE1300",
">+	c #FF4500",
",+	c #F7ED00",
"'+	c #FCFD16",
")+	c #F6DD00",
"!+	c #F89000",
"~+	c #FE2F00",
"{+	c #FF3400",
"]+	c #F98C00",
"^+	c #F96C00",
"/+	c #FF2F00",
"(+	c #FCFC16",
"_+	c #FD6700",
":+	c #FF3700",
"<+	c #F98500",
"[+	c #F6EB00",
"}+	c #F6BD00",
"|+	c #F97100",
"1+	c #FE0600",
"2+	c #F7CC00",
"3+	c #FCF716",
"4+	c #FE1700",
"5+	c #FC5A00",
"6+	c #F7B000",
"7+	c #F6E800",
"8+	c #FF1400",
"9+	c #F7C400",
"0+	c #FCF516",
"a+	c #F6B700",
"b+	c #FE0D00",
"c+	c #FE3900",
"d+	c #FA9200",
"e+	c #F6DA00",
"f+	c #F6CA00",
"g+	c #F99400",
"h+	c #F99300",
"i+	c #F6DB00",
"j+	c #FA9000",
"k+	c #FF0D00",
"l+	c #F7B600",
"m+	c #FCF216",
"n+	c #F6DF00",
"o+	c #F99B00",
"p+	c #FE3B00",
"q+	c #FE1900",
"r+	c #FD5B00",
"s+	c #F7BE00",
"t+	c #F6C200",
"u+	c #FB7E00",
"v+	c #FD4700",
"w+	c #FE3500",
"x+	c #FD4900",
"y+	c #FB7C00",
"z+	c #F99900",
"A+	c #FCED16",
"B+	c #F6D300",
"C+	c #FB8000",
"D+	c #FF2900",
"E+	c #F89500",
"F+	c #F7C700",
"G+	c #FB7A00",
"H+	c #FE0F00",
"I+	c #FB7B00",
"J+	c #F89600",
"K+	c #FE3700",
"L+	c #FCEA16",
"M+	c #F6D000",
"N+	c #FB7800",
"O+	c #FE1B00",
"P+	c #FC5D00",
"Q+	c #F7B800",
"R+	c #F99500",
"S+	c #FE3D00",
"T+	c #FC5B00",
"U+	c #FCE716",
"V+	c #F6D100",
"W+	c #FB7900",
"X+	c #FE2700",
"Y+	c #FA7C00",
"Z+	c #F7F100",
"`+	c #FD6200",
" @	c #F6CD00",
".@	c #F99100",
"+@	c #FE4E00",
"@@	c #FF3100",
"#@	c #FF3000",
"$@	c #FE3000",
"%@	c #FE5700",
"&@	c #F99A00",
"*@	c #FE4800",
"=@	c #FE1200",
"-@	c #F99D00",
";@	c #FE4D00",
">@	c #FCEC16",
",@	c #F99F00",
"'@	c #F98B00",
")@	c #F98D00",
"!@	c #FE1000",
"~@	c #FE4600",
"{@	c #F6C900",
"]@	c #F9A400",
"^@	c #FCF416",
"/@	c #F7E200",
"(@	c #F7DF00",
"_@	c #FE1F00",
":@	c #FD5F00",
"<@	c #F7F000",
"[@	c #F7F900",
"}@	c #FE4000",
"|@	c #FB7F00",
"1@	c #FD4A00",
"2@	c #F8A200",
"3@	c #F6D700",
"4@	c #F6D900",
"5@	c #F6D500",
"6@	c #F79F00",
"7@	c #F87700",
"8@	c #F88B00",
"9@	c #F89E00",
"0@	c #F6B800",
"a@	c #FB5400",
"b@	c #FE2D00",
"c@	c #FE2C00",
"d@	c #FE2900",
"e@	c #FB5200",
"f@	c #F6B300",
"g@	c #F7D100",
"h@	c #FB8100",
"i@	c #FE0700",
"j@	c #FE2300",
"k@	c #FB7500",
"l@	c #FA6800",
"m@	c #F7B900",
"n@	c #FD5500",
"o@	c #FF1700",
"p@	c #FE4700",
"q@	c #F9A100",
"r@	c #FA7D00",
"s@	c #FF0600",
"t@	c #F8FF00",
"u@	c #FAFF00",
"v@	c #FAFE00",
"w@	c #F9FF00",
"x@	c #F79600",
"y@	c #FC4100",
"z@	c #F8FB00",
"A@	c #FDFE00",
"B@	c #FBFE00",
"C@	c #FFFF00",
"D@	c #FEFE00",
"E@	c #FEFF00",
"F@	c #FCFF00",
"G@	c #FBF400",
"H@	c #FBFF00",
"I@	c #FDFF00",
"J@	c #F89C00",
"K@	c #FE2E00",
"L@	c #FAE600",
"M@	c #FCF900",
"N@	c #FCFE00",
"O@	c #FFFF16",
"P@	c #FAF700",
"Q@	c #F9BA00",
"R@	c #FE1A00",
"S@	c #FE3E00",
"T@	c #F9AC00",
"U@	c #FFFF09",
"V@	c #F7DA00",
"W@	c #FB6000",
"X@	c #F7CA00",
"Y@	c #F8FE00",
"Z@	c #F8B300",
"`@	c #FCF600",
" #	c #FC3900",
".#	c #FC7500",
"+#	c #FAE900",
"@#	c #FEFD00",
"##	c #FE4400",
"$#	c #FE3800",
"%#	c #F89100",
"&#	c #FFFF0E",
"*#	c #F8EA00",
"=#	c #F7DE00",
"-#	c #FD2800",
";#	c #F7AF00",
">#	c #F8E600",
",#	c #FEFF16",
"'#	c #F8C700",
")#	c #FA8400",
"!#	c #FE3200",
"~#	c #FE1800",
"{#	c #FD1F00",
"]#	c #FA5E00",
"^#	c #FAA500",
"/#	c #FCFA00",
"(#	c #FAEF00",
"_#	c #F8AD00",
":#	c #F89400",
"<#	c #FD6A00",
"[#	c #FE4C00",
"}#	c #FB5100",
"|#	c #F8B600",
"1#	c #FCF500",
"2#	c #F9FE00",
"3#	c #F6EE00",
"4#	c #F6CE00",
"5#	c #FA9400",
"6#	c #FB7D00",
"7#	c #FB7700",
"8#	c #FB7300",
"9#	c #F6B500",
"0#	c #F9EF00",
"a#	c #FCEC00",
"b#	c #FCE800",
"c#	c #FCE700",
"d#	c #FBE900",
". . . + @ @ @ @ @ @ @ @ + + + + + + + + + + + @ + + + + + + + + + + + + + + + + + + + + + + @ @ @ @ @ @ @ @ @ @ @ @ @ # ",
". @ . + @ @ @ @ @ @ @ @ + + + + + + + + + + + @ + + + + + + + + + + + + + + + + + + + + + + @ @ @ @ @ @ @ @ @ @ @ @ @ # ",
". . . + @ @ @ @ @ @ @ @ + + + + + + + + + + + @ + + + + + + + + + + + + + + + + + + + + + + @ @ @ @ @ @ @ @ @ @ @ @ @ # ",
". . . + @ @ @ @ @ @ @ @ + + + + + + + + + + + @ + + + + + + + + + + + + + + + + + + + + + + @ @ @ @ @ @ @ @ @ @ @ @ @ # ",
". $ . + @ @ @ @ @ @ @ $ % & * = - + + + + + + @ + + + + + + + + + + + + + + + + + + + - = * ; > $ @ @ @ @ @ @ @ @ @ @ # ",
". @ . + @ @ @ @ @ @ $ , ' ) ! ~ { ] + + + + + @ + + + + + + + + + + + + + + + + + + ] ^ / ! ( _ , $ @ @ @ @ @ @ @ @ @ # ",
". . . + @ @ @ @ @ @ , : < [ } | 1 2 + + + + + @ + + + + + + + + + + + + + + + + + + 3 4 | 5 6 7 : , @ @ @ @ @ @ @ @ @ # ",
". . . + @ @ @ @ $ , 8 9 0 a b c d e f + + + + @ + + + + + + + + + + + + + + + + + g h i j k l 0 m n , $ @ @ @ @ @ @ @ # ",
". + . + @ @ @ $ , o m p q r s t u v w x + + + @ + + + + + + + + + + + + + + + + % = y z A s B C D E o , $ @ @ @ @ @ @ # ",
". . . + @ @ $ F G H I C J K K L M N O P + + + @ + + + + + + + + + + + + + + + + & e Q R S K T U C V W G F $ @ @ @ @ @ # ",
". . . + @ $ , 8 E X Y B K K K s L Z `  ...+ + @ + + + + + + + + + + + + + + + ..+.@.#.$.%.K T T B Y p &.8 , $ @ @ @ @ # ",
". . . + @ *._ H p =.B -.K K K K ;.>.,.'.g + + @ + + + + + + + + + + + + + + + - ).!.l ~.K K T T -.B {.p H _ *.@ @ @ @ # ",
". . $ + > ].^./.(._.T T K K K K K L j :.<.g + @ + + + + + + + + + + + + + + g <.:.j L K K K T T T T _.(./.^.].> @ @ @ # ",
". . . + [.}.|.1.U T T T K K K K K ;.2.3.4.5.% @ + + + + + + + + + + + + + % 5.4.3.2.;.K K K T T T T T U 1.|.}.[.@ @ @ # ",
". . . x 6.7.8.9.0.T T T K K K K K K L a.b.c.- @ + + + + + + + + + + + + + - c.d.M e.K K K K T T T T T 0.f.g.h.i.*.@ @ # ",
". . + & ( j.k.l.T T T T K K K K K K s S m.n.5.o.+ + + + + + + + + + + + ..p.n.q.r.K K K K K T T T T T T s.{.t.u.F $ @ # ",
". $ ..^ v.w.x.-.T T T T K K K K K K K y.z.A.B.F + + + + + + + + + + + + C.B.A.z.y.K K K K K T T T T T T -.x.w.v.D.o.@ # ",
". . E.F.G.H.0.T T T T T K K K K K K K K I.J.n.D.g + + + + + + + + + + g ' K.J.I.K K K K K K T T T T T T T 0.H.L.M.N.@ # ",
". ..O.P.g.Q.-.T T T T T K K K K K K K K y.R.S.T.U.+ + + + + + + + + + U.4 V.R.y.K K K K K K T T T T T T T -.Q.g.P.W.o.# ",
". - X.Y.{.Z.T T T T T T K K K K K K K K s L `. +.+f + + + + + + + + ++@+#+R L s K K K K K K T T T T T T T T Z.{.Y.X.[.# ",
"> $+%+&+*+T T T T T T T K K K K K K K K K %.$.0 =+U.% + + + + + + ++-+` #.;+%.K K K K K K K T T T T T T T T T *+>+%+,+'+",
"] )+!+~+_.T T T T T T T K K K K K K K K K K e.{+]++.x + + + + + % 3 ).^+M r K K K K K K K K T T T T T T T T T _./+Q 8 (+",
"++O _+t l.T T T T T T T K K K K K K K K K K e.:+<+{ x + + + + + % [+}+|+z.1+K K K K K K K K T T T T T T T T T l.Y _+2+3+",
"- 1 p $.T T T T T T T T K K K K K K K K K ~.4+5+6+$+f 2 [+7+7+[+2 P +.7.} 4+~.K K K K K K K T T T T T T T T T T 8+p 9+0+",
"[+a+#.b+T T T T T T T T K K K K K K K K K r c+d+e+C.5.f+E g+h+n.).5.C.i+j+c+r K K K K K K K T T T T T T T T T T k+#.l+m+",
"n+o+p+r T T T T T T T T K K K K K K K K %.q+r+s+U.5.t+u+v+w+1.x+y+4 5.[+~ r+b %.K K K K K K T T T T T T T T T T B p+z+A+",
"B+C+D+~.T T T T T T T T K K K K K K K K S w+E+8 * F+G+w+b+;.y.H+R I+M.3  .J+K+J K K K K K K T T T T T T T T T T 0.D+C+L+",
"M+N+=.K T T T T T T T T K K K K K K K K O+P+Q+]. .R+j H+%.K K %.H+S+h+{ [+y T+q+K K K K K K T T T T T T T T T T T =.N+U+",
"V+W+k.s -.-.-.-.-.-.-.-.s s s s s s s s X+Y+@+Z+O `+2.~.K K K K ~.2.`+ @* V+Y+X+s s s s s s -.-.-.-.-.-.-.-.-.-.-.k.W+U+",
"e .@+@~+@@@@/+#@@@@@/+@@R $@$@R R ~+R R %@&@<.Z+~ *@=@K K K K K K =@*@~ = +.-@%@~+R R $@$@R @@/+@@@@#@#@@@@@/+@@@@;@:.>@",
"p.t+,@'@)@)@'@]+)@)@'@)@)@'@]+)@)@'@)@)@h.).[+Z+~ *@H+K K K K K K !@~@~ = U.{@]@'@)@)@'@]+)@)@'@)@)@]+'@)@)@'@)@)@-@^.^@",
"f * O.+./@/@: (@D.(@/@: { -+n+^ -+{ -+^ ' P g [.O `+A s K K K K ~._@:@O - g P ' { +.{ -+n+^ o /@o D.(@o /@: /@(@D.i.<@(+",
". @ @ + @ @ @ @ @ @ @ @ + + + + + + + + + + + [@{ h+}@S K K K %.H+S+h+{ g + + + + + + + + + @ @ @ @ @ @ @ @ @ @ @ @ @ # ",
". . . + @ @ @ @ @ @ @ @ + + + + + + + + + + + $ P M.I+R H+y.y.H+R I+M.P + + + + + + + + + + @ @ @ @ @ @ @ @ @ @ @ @ @ # ",
". . . + @ @ @ @ @ @ @ @ + + + + + + + + + + + @ x 5.4 |@1@w+1.x+y+'.7+x + + + + + + + + + + @ @ @ @ @ @ @ @ @ @ @ @ @ # ",
". . . + @ @ @ @ @ @ @ @ + + + + + + + + + + + @ + ] 5.{@2@g+g+&.).U.] + + + + + + + + + + + @ @ @ @ @ @ @ @ @ @ @ @ @ # ",
". . . + @ @ @ @ @ @ @ @ + + + + + + + + + + + @ % ] ++2 5.7+O.U.* - ] % + + + + + + + + + + @ @ @ @ @ @ @ @ @ @ @ @ @ # ",
". . . + @ @ @ @ @ @ @ @ + + + + + + + + + + + o.&  .3@4@p.7+U.p.i+5@ .& ..+ + + + + + + + + @ @ @ @ @ @ @ @ @ @ @ @ @ # ",
". . + + @ @ @ @ @ @ @ @ + + + + + + + + + + + , i+6@7@8@9@K.&.9@8@7@6@i+C.+ + + + + + + + + @ @ @ @ @ @ @ @ @ @ @ @ @ # ",
". . . + @ @ @ @ @ @ @ @ + + + + + + + + + + % 6.0@a@z.b@w+1.c+w+c@d@e@f@O.] + + + + + + + + @ @ @ @ @ @ @ @ @ @ @ @ @ # ",
". @ . + @ @ @ @ @ @ @ @ + + + + + + + + + + C.g@h@d@r y.1+i@i@1+y.r j@k@T.3 + + + + + + + + @ @ @ @ @ @ @ @ @ @ @ @ @ # ",
". . . + @ @ @ @ @ @ @ @ + + + + + + + + + f { 2@#.r.%.K K K K K K %.e.c i e+f + + + + + + + @ @ @ @ @ @ @ @ @ @ @ @ @ # ",
". . @ + @ @ @ @ @ @ @ @ + + + + + + + + % * ~ l@j@y.K K K K K K K K %.q+D m@$+% + + + + + + @ @ @ @ @ @ @ @ @ @ @ @ @ # ",
". . . + @ @ @ @ @ @ @ @ + + + + + + + + f e )@$@r K K K K K K K K K K e.c@<+@+P + + + + + + @ @ @ @ @ @ @ @ @ @ @ @ @ # ",
". . . + @ @ @ @ @ @ @ @ + + + + + + + x 5.a+n@o@%.K K K K K K K K K K %.;+p@q@-+x + + + + + @ @ @ @ @ @ @ @ @ @ @ @ @ # ",
". . @ + @ @ @ @ @ @ @ @ + + + + + + + 2 {@r@c@s@K K K K K K K K K K K K y._@t.^.P + + + $ $ @ @ @ @ @ @ @ @ @ @ @ @ @ # ",
". t@u@v@u@u@u@w@@ @ @ @ + + + + + + ] ^ x@y@b+l.K K K K K K K K K K K K K L p+h++.z@v@v@A@A@u@w@@ @ @ @ @ t@u@u@u@@ @ # ",
". B@C@D@C@C@C@E@F@t@@ @ + + + + + + P 4 /._@%.T K K K K K K K K K K K K K ~.A /.)+G@D@D@D@D@C@E@u@@ @ @ H@I@C@C@C@F@u@# ",
". H@C@D@I@F@I@C@C@u@@ @ + + + + + ] i+J@`.L K T K K K K K K K K K K K K K K L K@E L@M@N@N@A@C@C@C@u@@ F@C@C@C@C@C@C@C@O@",
". H@C@D@w@@ t@E@C@C@@ @ B@B@B@+ ..P@Q@Z R@~.K T K K K K K K K K K K K K K K ~.$.S@T@<...+ $ F@C@C@H@w@C@C@C@C@C@C@C@C@U@",
". H@C@D@w@@ @ I@C@C@@ @ A@D@D@+ & V@W@~.i@K K T K K K K K K K K K K K K K K K y.l ,.X@z@Y@v@E@C@H@@ w@C@C@C@C@C@C@C@C@C@",
". H@C@D@w@@ w@E@C@C@@ @ A@D@D@x O.Z@K K ~.K K T K K K K K K K K K K K K K K K K !@}@E `@D@D@C@F@H@@ w@C@C@C@C@C@C@C@C@C@",
". H@C@D@I@I@E@C@E@u@@ @ A@D@D@2 X. #K K K K K T K K K K K K K K K K K K K K K K ;.j@.#+#@#D@C@I@H@@ @ F@C@C@C@C@C@C@C@C@",
"+ H@D@D@C@C@C@E@w@@ @ @ A@D@D@{ y+J K K K K K T K K K K K K K K K K K K K K K K s S ##E O.N@I@C@C@H@@ w@F@C@C@C@I@E@C@C@",
". H@C@D@H@w@w@w@@ @ @ @ A@D@D@+.d.L K K K K K T K K K K K K K K K K K K K K K K s J $#%#4@+ H@C@C@H@@ @ @ w@w@w@H@E@C@&#",
". H@C@D@w@@ @ @ @ @ @ @ A@D@D@*#=#9 -#i@H+r %.-.K K K K K K K K K K K K K K y.H+K $.X ;#>#v@E@C@E@t@@ t@t@t@t@u@E@C@E@,#",
". H@C@D@w@@ @ @ @ @ @ @ v@D@D@D@`@: '#)#*@!#A *+1+~.K K K K K K K K K K K K ~#*@{#]#^#`@D@D@C@E@w@@ @ H@C@C@C@C@C@E@w@# ",
". H@E@D@w@@ @ @ @ @ @ @ $ v@D@D@D@/#(#/@_#:#<#[#w+a q _@q q J J J J e.b+=@b }#_#|#M+1#D@D@D@u@t@@ @ @ H@E@E@E@E@u@t@@ # ",
". . . + @ @ @ @ @ @ @ @ + + + + + + 2#z@3#-+4#7 5#6#7#8#7#7#k@k@7#7#6#5#9#4#n+$+] ..+ + + + @ @ @ @ @ @ @ @ @ @ @ @ @ # ",
". + . + @ @ @ @ @ @ @ @ + + + + + + + + + ..++0#a#b#c#c#c#c#c#c#c#c#b#d#5.++x + + + + + + + @ @ @ @ @ @ @ @ @ @ @ @ @ # "};
