/* XPM */
static char * radiof_xpm[] = {
"60 60 149 2",
"  	c None",
". 	c #DFDFDF",
"+ 	c #E0E0E0",
"@ 	c #E4E4E4",
"# 	c #DEDEDE",
"$ 	c #DADADA",
"% 	c #D7D7D7",
"& 	c #D8D8D8",
"* 	c #DBDBDB",
"= 	c #D1D1D1",
"- 	c #C1C1C1",
"; 	c #B1B1B1",
"> 	c #BABABA",
", 	c #CFCFCF",
"' 	c #DDDDDD",
") 	c #D0D0D0",
"! 	c #BBBBBB",
"~ 	c #CECECE",
"{ 	c #B6B6B6",
"] 	c #929292",
"^ 	c #7F7F7F",
"/ 	c #959595",
"( 	c #BDBDBD",
"_ 	c #BEBEBE",
": 	c #808080",
"< 	c #949494",
"[ 	c #B4B4B4",
"} 	c #CBCBCB",
"| 	c #AFAFAF",
"1 	c #626262",
"2 	c #595959",
"3 	c #6E6E6E",
"4 	c #9D9D9D",
"5 	c #C9C9C9",
"6 	c #DCDCDC",
"7 	c #CCCCCC",
"8 	c #9C9C9C",
"9 	c #6F6F6F",
"0 	c #585858",
"a 	c #ADADAD",
"b 	c #5F5F5F",
"c 	c #505050",
"d 	c #4C4C4C",
"e 	c #5C5C5C",
"f 	c #7E7E7E",
"g 	c #B3B3B3",
"h 	c #D3D3D3",
"i 	c #B8B8B8",
"j 	c #848484",
"k 	c #5E5E5E",
"l 	c #828282",
"m 	c #ABABAB",
"n 	c #B2B2B2",
"o 	c #7B7B7B",
"p 	c #515151",
"q 	c #4B4B4B",
"r 	c #525252",
"s 	c #636363",
"t 	c #8E8E8E",
"u 	c #C2C2C2",
"v 	c #D9D9D9",
"w 	c #9E9E9E",
"x 	c #696969",
"y 	c #535353",
"z 	c #7D7D7D",
"A 	c #B0B0B0",
"B 	c #727272",
"C 	c #A8A8A8",
"D 	c #AEAEAE",
"E 	c #797979",
"F 	c #4D4D4D",
"G 	c #AAAAAA",
"H 	c #606060",
"I 	c #4E4E4E",
"J 	c #8F8F8F",
"K 	c #BFBFBF",
"L 	c #D5D5D5",
"M 	c #858585",
"N 	c #9F9F9F",
"O 	c #C6C6C6",
"P 	c #6C6C6C",
"Q 	c #5D5D5D",
"R 	c #D4D4D4",
"S 	c #A9A9A9",
"T 	c #575757",
"U 	c #656565",
"V 	c #C3C3C3",
"W 	c #C4C4C4",
"X 	c #999999",
"Y 	c #777777",
"Z 	c #8B8B8B",
"` 	c #616161",
" .	c #D2D2D2",
"..	c #545454",
"+.	c #4F4F4F",
"@.	c #717171",
"#.	c #555555",
"$.	c #646464",
"%.	c #939393",
"&.	c #8C8C8C",
"*.	c #565656",
"=.	c #8D8D8D",
"-.	c #A6A6A6",
";.	c #8A8A8A",
">.	c #C0C0C0",
",.	c #6A6A6A",
"'.	c #9A9A9A",
").	c #C5C5C5",
"!.	c #9B9B9B",
"~.	c #757575",
"{.	c #787878",
"].	c #E3E3E3",
"^.	c #676767",
"/.	c #6B6B6B",
"(.	c #D6D6D6",
"_.	c #E2E2E2",
":.	c #888888",
"<.	c #B9B9B9",
"[.	c #B5B5B5",
"}.	c #6D6D6D",
"|.	c #A1A1A1",
"1.	c #CACACA",
"2.	c #CDCDCD",
"3.	c #A5A5A5",
"4.	c #5A5A5A",
"5.	c #818181",
"6.	c #BCBCBC",
"7.	c #767676",
"8.	c #979797",
"9.	c #A2A2A2",
"0.	c #A3A3A3",
"a.	c #5B5B5B",
"b.	c #707070",
"c.	c #B7B7B7",
"d.	c #A0A0A0",
"e.	c #7A7A7A",
"f.	c #686868",
"g.	c #A7A7A7",
"h.	c #969696",
"i.	c #C8C8C8",
"j.	c #C7C7C7",
"k.	c #909090",
"l.	c #7C7C7C",
"m.	c #666666",
"n.	c #989898",
"o.	c #E1E1E1",
"p.	c #747474",
"q.	c #ACACAC",
"r.	c #919191",
". + + . + + + + + + + + . . . . . . . . . . . + . . . . . . . . . . . . . . . . . . . . . . + + + + + + + + + + + + + @ ",
"+ . + . + + + + + + + + . . . . . . . . . . . + . . . . . . . . . . . . . . . . . . . . . . + + + + + + + + + + + + + @ ",
". . + . + + + + + + + + . . . . . . . . . . . + . . . . . . . . . . . . . . . . . . . . . . + + + + + + + + + + + + + @ ",
"+ . . . + + + + + + + + . . . . . . . . . . . + . . . . . . . . . . . . . . . . . . . . . . + + + + + + + + + + + + + @ ",
". . . . + + + + + + + . # $ % & $ . . . . . . + . . . . . . . . . . . . . . . . . . . $ & % $ # . + + + + + + + + + + @ ",
"+ . . . + + + + + + . * = - ; > , ' . . . . . + . . . . . . . . . . . . . . . . . . ' ) ! ; - = * . + + + + + + + + + @ ",
". + + . + + + + + + * ~ { ] ^ / ( & . . . . . + . . . . . . . . . . . . . . . . . . % _ / : < [ ~ * + + + + + + + + + @ ",
"+ . + . + + + + . * } | ^ 1 2 3 4 5 6 . . . . + . . . . . . . . . . . . . . . . . 6 7 8 9 0 1 : a } * . + + + + + + + @ ",
". . . . + + + . * ~ a : b c d e f g h ' . . . + . . . . . . . . . . . . . . . . . & i j k d c b l m ~ * . + + + + + + @ ",
". . + . + + . * 7 n o b p d q r s t u & . . . + . . . . . . . . . . . . . . . . v 5 w x y d d p b z A 7 * . + + + + + @ ",
". . + . + . * } m f e c d q q d y B C 7 # . . + . . . . . . . . . . . . . . . # , D E 0 F q d d c e : G } * . + + + + @ ",
"+ . . . + ' = n : H c d q q q q I H J _ 6 . . + . . . . . . . . . . . . . . . $ K J 1 I d q d d d c H : n = ' + + + + @ ",
"+ . . . # L ! M b c d d q q q q q r 9 N ) 6 . + . . . . . . . . . . . . . . 6 ) N 9 r q q q d d d d c b M ! L # + + + @ ",
"+ + + . $ O w P p d d d q q q q q I Q j ! R # + . . . . . . . . . . . . . # R ! j Q I q q q d d d d d p P w O $ + + + @ ",
"+ . . ' h S E T I d d d q q q q q d r U / V $ + . . . . . . . . . . . . . $ W X s r d q q q d d d d d I 0 Y G ) # + + @ ",
"+ . . v u Z ` F d d d d q q q q q q F y o m h # . . . . . . . . . . . . #  .m E ..q q q q q d d d d d d +.H Z u $ . + @ ",
". + # ) | @.#.d d d d d q q q q q q q +.$.%.W $ . . . . . . . . . . . . * W %.$.+.q q q q q d d d d d d d #.@.A ) # + @ ",
". . & K &.Q I d d d d d q q q q q q q q *.B m , 6 . . . . . . . . . . 6 = S B *.d q q q q q d d d d d d d I Q =._ v + @ ",
"+ # ) -.Y r d d d d d d q q q q q q q q +.H ;._ L . . . . . . . . . . L _ &.H +.q q q q q q d d d d d d d d r Y -.= # @ ",
". $ >.=.H I d d d d d d q q q q q q q q F r ,.'.O * . . . . . . . . * ).!.x r F q q q q q q d d d d d d d d I H =.>.$ @ ",
". L | ~.*.d d d d d d d q q q q q q q q q F T ^ A L # . . . . . . * ~ S {.T F q q q q q q q d d d d d d d d d *.~.| L ].",
"' 7 N ^.c d d d d d d d q q q q q q q q q q r /.4 ~ ' . . . . . . (.K ;.s p q q q q q q q q d d d d d d d d d c ^.w } _.",
"* u :.Q F d d d d d d d q q q q q q q q q q r P X ~ ' . . . . . # R <.=.U c q q q q q q q q d d d d d d d d d F Q :.u . ",
"$ ( : 0 d d d d d d d d q q q q q q q q q I 2 : ; (.* v R  . .R v & , G ^ 2 I q q q q q q q d d d d d d d d d d 0 : ( # ",
"R [.{.y d d d d d d d d q q q q q q q q d c }.|.1.$ R >.m |.|.G >.R $ } N }.p d q q q q q q d d d d d d d d d d ..{.[.6 ",
"2.3.3 c d d d d d d d d q q q q q q q q F 4.5.<.L R 6./ ~./.P 7.< _ R R > 5.2 F q q q q q q d d d d d d d d d d c 3 3.$ ",
"O 8.U I d d d d d d d d q q q q q q q q y /.9.} % _ %./.y I +.#.x < _ % 7 0.P p q q q q q q d d d d d d d d d d I U 8.% ",
"W ] H q d d d d d d d d q q q q q q q q a.l { (.7 9.9 ..F q q F ..b.|., R c.5.a.d q q q q q d d d d d d d d d d d H ] (.",
"W ] ` F F F F F F F F F F F F F F F F F s < ).% u M Q F q q q q F Q M u % ).< s F F F F F F F F F F F F F F F F F ` ] (.",
"5 d.e.f.x x f.f.x x ^.x x f.f.x x ^.x x ^ 3.) % > 7.T d q q q q d T 7.> % ~ g.^ ^.x x f.f.x x ^.x x f.f.x x ^.x x E N v ",
" .6.C 8 4 4 8 4 4 4 8 4 4 8 4 4 4 8 4 4 G K R % > 7.#.q q q q q d #.7.> % L >.m 8 4 4 8 4 4 4 8 4 4 4 8 4 4 8 4 4 g.! ' ",
"* % ) ~ ~ ~ ~ 2., 2.~ ~ , 2.2., 2.~ 2., = & 6 $ u M Q F q q q q F k j u $ 6 & = ~ ~ , 2.2., 2.~ 2., 2.2., ~ ~ 2., ) % _.",
". . + . + + + + + + + + . . . . . . . . . . . ' , |.@.y q q q F ..b.|., ' . . . . . . . . . + + + + + + + + + + + + + @ ",
"+ . . . + + + + + + + + . . . . . . . . . . . . v _ < x ..+.+.#.x < _ v . . . . . . . . . . + + + + + + + + + + + + + @ ",
"+ + + . + + + + + + + + . . . . . . . . . . . + ' R _ h.Y /.P 7.< K  .' . . . . . . . . . . + + + + + + + + + + + + + @ ",
". . . . + + + + + + + + . . . . . . . . . . . + . ' R >.S |.9.G K L ' . . . . . . . . . . . + + + + + + + + + + + + + @ ",
"+ . . . + + + + + + + + . . . . . . . . . . . + # ' * v h  .= L % $ ' # . . . . . . . . . . + + + + + + + + + + + + + @ ",
". . . . + + + + + + + + . . . . . . . . . . . # v 7 i.5 =  .R = 1.j.7 v # . . . . . . . . . + + + + + + + + + + + + + @ ",
". + + . + + + + + + + + . . . . . . . . . . . * } g.k.8 g.S G g.8 k.C 1.* . . . . . . . . . + + + + + + + + + + + + + @ ",
". . . . + + + + + + + + . . . . . . . . . . . h { l.$.m./.P 3 /.U $.o g = ' . . . . . . . . + + + + + + + + + + + + + @ ",
". + + . + + + + + + + + . . . . . . . . . . * ).8.$.c +.+.c c +.+.c ` k._ (.. . . . . . . . + + + + + + + + + + + + + @ ",
". . + . + + + + + + + + . . . . . . . . . 6 , S {...F q q q q q q F r 3 8 1.6 . . . . . . . + + + + + + + + + + + + + @ ",
". + + . + + + + + + + + . . . . . . . . . % > :.H +.q q q q q q q q F a.5.c.L . . . . . . . + + + + + + + + + + + + + @ ",
". . . . + + + + + + + + . . . . . . . . 6 5 4 f.p d q q q q q q q q q r U n.).& . . . . . . + + + + + + + + + + + + + @ ",
"+ . . . + + + + + + + + . . . . . . . # R { z 2 F q q q q q q q q q q F T 7.S 2.# . . . . . + + + + + + + + + + + + + @ ",
"+ . + . + + + + + + + + . . . . . . . v >./ m.c d q q q q q q q q q q d +.k Z ! v . . . + + + + + + + + + + + + + + + @ ",
". + + + + + + + + + + + . . . . . . ' , 9.@.y F q q q q q q q q q q q q q r 3 |.~ # + + o.o.+ + + + + + + + + + + + + @ ",
". o._.o._._._.o.o.+ + + . . . . . . & _ j k F d q q q q q q q q q q q q q I k M 7 $ o.o.o.o._.o.+ + + + o.o._._._.o.+ @ ",
"+ o.o.o.o.o.o._._.+ + + . . . . . ' } -.,.r d d q q q q q q q q q q q q q d r ^.m  .# o.o.o._._._.+ + o._._._._._._._.@ ",
". o.o.o.+ + + o._._.+ + o.o.o.. # 6 i B a.I q d q q q q q q q q q q q q q q I 0 b.| ) # . + o._._.o.+ _._._._._._._._.].",
"+ o._.o.+ + + o._._.+ + o.o.o.. $ 1.j I c d q d q q q q q q q q q q q q q q d +.1 J - ' + + o._.o.+ + _._._._._._._._._.",
". o.o.o.+ + + o._._.+ + o.o.o.# = g q q F q q d q q q q q q q q q q q q q q q q #.@.m 6 o.o._.o.o.+ + _._._._._._._._._.",
"+ o._.o.o.o.o._.o.+ + + o.o.o.v >.}.q q q q q d q q q q q q q q q q q q q q q q I H k.h o.o._.o.o.+ + o._._._._._._._._.",
". o.o.o._._._.o.+ + + + o.o.o., < p q q q q q d q q q q q q q q q q q q q q q q d y p.q.= o.o._._.o.+ + o._._._.o.o._._.",
". o.o.o.o.+ + + + + + + o.o.o.~ X r q q q q q d q q q q q q q q q q q q q q q q d p P N 1.. o._._.o.+ + + + + + o.o._.].",
". o._.o.+ + + + + + + + o.o.o.R 2.| s c #.p F d q q q q q q q q q q q q q q +.#.d T f ;  .+ o._.o.+ + + + + + + o._.o.@ ",
". o.o.o.+ + + + + + + + + o.o.o.6 ~ K n.7.x Q *.c F q q q q q q q q q q q q 4.7.k l q.6 o.o._.o.+ + + o._._._._._.o.+ @ ",
". o.o.o.+ + + + + + + + + + o.o.o.# % ~ A |.;.{./.1 b k b b p p p p r ..*.0 e.A [.W * o.o.o.+ + + + + o.o.o.o.o.+ + + @ ",
"+ + + . + + + + + + + + . . . . . . + # (.~ V [ 9.< r.J r.r.k.k.r.r.< 9.[ V 2.L ' # . . . . + + + + + + + + + + + + + @ ",
"+ . . . + + + + + + + + . . . . . . . . . # * % (.R h h h h h h h h R R h * ' . . . . . . . + + + + + + + + + + + + + @ "};
