/* XPM */
static char *redoff[] = {
/* width height num_colors chars_per_pixel */
"    17    17       47            1",
/* colors */
". c NONE",
"# c #9c8888",
"a c #9b7878",
"b c #9c6464",
"c c #9c6060",
"d c #9b5050",
"e c #9b4b4b",
"f c #9b4646",
"g c #9b4141",
"h c #9c4141",
"i c #9a3f3f",
"j c #9c3e3e",
"k c #9b3c3c",
"l c #9c3c3c",
"m c #9c3a3a",
"n c #9c3737",
"o c #9c3434",
"p c #9c3232",
"q c #9b2d2d",
"r c #8f1a1a",
"s c #9b1919",
"t c #971616",
"u c #9c1111",
"v c #9c1010",
"w c #9b0f0f",
"x c #9b0a0a",
"y c #9b0505",
"z c #9b0000",
"A c #9b0000",
"B c #9c0000",
"C c #9c0000",
"D c #9c0000",
"E c #9c0000",
"F c #9c0000",
"G c #9c0000",
"H c #9b0000",
"I c #9a0000",
"J c #980000",
"K c #970000",
"L c #950000",
"M c #930000",
"N c #910000",
"O c #8f0000",
"P c #990000",
"Q c #8a0000",
"R c #880000",
"S c #860000",
/* pixels */
".................",
".................",
".....cpwzvoc.....",
"...#nzzzzACFl#...",
"...nzxgqzBDGJj...",
"..czzeafACEHKNb..",
"..pzzkdsCEGILPm..",
"..wzzyyCEGIKNQt..",
"..CBBCDEGIKMPSR..",
"..uDDEFHIKMPRSt..",
"..oGGHIJLMPRSSm..",
"..cJJJKMNPRSSRb..",
"...jMNOPQSSSSh...",
"...#hQRSSSSSh#...",
".....birSrib.....",
".................",
"................."
};
