/* XPM */
static char * rtc99of_xpm[] = {
"60 60 184 2",
"  	c None",
". 	c #D3D3D3",
"+ 	c #D4D4D4",
"@ 	c #D9D9D9",
"# 	c #CECECE",
"$ 	c #CCCCCC",
"% 	c #CDCDCD",
"& 	c #CFCFCF",
"* 	c #D0D0D0",
"= 	c #C7C7C7",
"- 	c #B9B9B9",
"; 	c #ACACAC",
"> 	c #B3B3B3",
", 	c #C5C5C5",
"' 	c #D1D1D1",
") 	c #C6C6C6",
"! 	c #B4B4B4",
"~ 	c #C4C4C4",
"{ 	c #B0B0B0",
"] 	c #939393",
"^ 	c #828282",
"/ 	c #949494",
"( 	c #B5B5B5",
"_ 	c #B6B6B6",
": 	c #838383",
"< 	c #AEAEAE",
"[ 	c #C2C2C2",
"} 	c #AAAAAA",
"| 	c #6A6A6A",
"1 	c #626262",
"2 	c #757575",
"3 	c #9B9B9B",
"4 	c #BFBFBF",
"5 	c #767676",
"6 	c #616161",
"7 	c #A8A8A8",
"8 	c #C1C1C1",
"9 	c #676767",
"0 	c #5B5B5B",
"a 	c #575757",
"b 	c #656565",
"c 	c #818181",
"d 	c #ADADAD",
"e 	c #C8C8C8",
"f 	c #D2D2D2",
"g 	c #B1B1B1",
"h 	c #878787",
"i 	c #666666",
"j 	c #686868",
"k 	c #858585",
"l 	c #A7A7A7",
"m 	c #7F7F7F",
"n 	c #565656",
"o 	c #5C5C5C",
"p 	c #6B6B6B",
"q 	c #909090",
"r 	c #BABABA",
"s 	c #C0C0C0",
"t 	c #707070",
"u 	c #5D5D5D",
"v 	c #ABABAB",
"w 	c #787878",
"x 	c #A4A4A4",
"y 	c #C3C3C3",
"z 	c #A9A9A9",
"A 	c #7D7D7D",
"B 	c #585858",
"C 	c #A6A6A6",
"D 	c #848484",
"E 	c #595959",
"F 	c #B7B7B7",
"G 	c #696969",
"H 	c #CBCBCB",
"I 	c #888888",
"J 	c #5A5A5A",
"K 	c #9D9D9D",
"L 	c #BDBDBD",
"M 	c #727272",
"N 	c #868686",
"O 	c #C9C9C9",
"P 	c #A5A5A5",
"Q 	c #7E7E7E",
"R 	c #606060",
"S 	c #6D6D6D",
"T 	c #959595",
"U 	c #BBBBBB",
"V 	c #BCBCBC",
"W 	c #989898",
"X 	c #7C7C7C",
"Y 	c #8C8C8C",
"Z 	c #5E5E5E",
"` 	c #8D8D8D",
" .	c #777777",
"..	c #5F5F5F",
"+.	c #6C6C6C",
"@.	c #8E8E8E",
"#.	c #8F8F8F",
"$.	c #A3A3A3",
"%.	c #8B8B8B",
"&.	c #CACACA",
"*.	c #B8B8B8",
"=.	c #717171",
"-.	c #999999",
";.	c #BEBEBE",
">.	c #9A9A9A",
",.	c #7A7A7A",
"'.	c #9C9C9C",
").	c #6F6F6F",
"!.	c #D8D8D8",
"~.	c #737373",
"{.	c #979797",
"].	c #B2B2B2",
"^.	c #D5D5D5",
"/.	c #AFAFAF",
"(.	c #747474",
"_.	c #9F9F9F",
":.	c #9E9E9E",
"<.	c #A2A2A2",
"[.	c #636363",
"}.	c #7B7B7B",
"|.	c #A1A1A1",
"1.	c #969696",
"2.	c #929292",
"3.	c #646464",
"4.	c #919191",
"5.	c #808080",
"6.	c #8A8A8A",
"7.	c #898989",
"8.	c #252525",
"9.	c #4C4C4C",
"0.	c #2A2A2A",
"a.	c #141414",
"b.	c #1B1B1B",
"c.	c #222222",
"d.	c #4F4F4F",
"e.	c #3A3A3A",
"f.	c #797979",
"g.	c #000000",
"h.	c #3D3D3D",
"i.	c #111111",
"j.	c #151515",
"k.	c #181818",
"l.	c #090909",
"m.	c #464646",
"n.	c #161616",
"o.	c #1E1E1E",
"p.	c #404040",
"q.	c #3C3C3C",
"r.	c #080808",
"s.	c #484848",
"t.	c #313131",
"u.	c #4A4A4A",
"v.	c #6E6E6E",
"w.	c #424242",
"x.	c #3F3F3F",
"y.	c #505050",
"z.	c #2E2E2E",
"A.	c #454545",
"B.	c #434343",
"C.	c #0B0B0B",
"D.	c #060606",
"E.	c #101010",
"F.	c #282828",
"G.	c #1C1C1C",
"H.	c #030303",
"I.	c #545454",
"J.	c #0A0A0A",
"K.	c #070707",
"L.	c #010101",
"M.	c #262626",
"N.	c #3E3E3E",
"O.	c #303030",
"P.	c #131313",
"Q.	c #4E4E4E",
"R.	c #363636",
"S.	c #020202",
"T.	c #373737",
"U.	c #0D0D0D",
"V.	c #121212",
"W.	c #050505",
"X.	c #191919",
"Y.	c #333333",
"Z.	c #171717",
"`.	c #212121",
". . . . + + + + + + + + . . . . . . . . . . . + . . . . . . . . . . . . . . . . . . . . . . + + + + + + + + + + + + + @ ",
"+ . + . + + + + + + + + . . . . . . . . . . . + . . . . . . . . . . . . . . . . . . . . . . + + + + + + + + + + + + + @ ",
". . + . + + + + + + + + . . . . . . . . . . . + . . . . . . . . . . . . . . . . . . . . . . + + + + + + + + + + + + + @ ",
". + + . + + + + + + + + . . . . . . . . . . . + . . . . . . . . . . . . . . . . . . . . . . + + + + + + + + + + + + + @ ",
". . . . + + + + + + + . . # $ % & . . . . . . + . . . . . . . . . . . . . . . . . . . & % $ # . . + + + + + + + + + + @ ",
". . . . + + + + + + . * = - ; > , ' . . . . . + . . . . . . . . . . . . . . . . . . ' ) ! ; - = * . + + + + + + + + + @ ",
"+ . . . + + + + + + * ~ { ] ^ / ( % . . . . . + . . . . . . . . . . . . . . . . . . $ _ / : / < ~ * + + + + + + + + + @ ",
". . . . + + + + . * [ } : | 1 2 3 4 * . . . . + . . . . . . . . . . . . . . . . . ' [ 3 5 6 | : 7 8 * . + + + + + + + @ ",
"+ . . . + + + . * ~ 7 : 9 0 a b c d e f . . . + . . . . . . . . . . . . . . . . . % g h i a 0 j k l ~ * . + + + + + + @ ",
". . + . + + . & [ ; m j 0 a n o p q r % . . . + . . . . . . . . . . . . . . . . # s 3 t u a a 0 j c v [ & . + + + + + @ ",
"+ + . . + . * [ l ^ b 0 a n n a o w x y f . . + . . . . . . . . . . . . . . . f , z A 6 B n a a 0 b : C [ * . + + + + @ ",
". . . . + f = ; D j 0 a n n n n E j q _ ' . . + . . . . . . . . . . . . . . . & F q | B a n a a a 0 G : ; = f + + + + @ ",
". . . . . H ! I 9 J a a n n n n n o 5 K ) ' . + . . . . . . . . . . . . . . ' ) K 5 o n n n a a a a J 9 I ! H . + + + @ ",
"+ + + . & L 3 M 0 a a a n n n n n E i N ! O . + . . . . . . . . . . . . . . O ! N i E n n n a a a a a 0 M 3 L & + + + @ ",
". . . f e P Q R B a a a n n n n n a o S T U # + . . . . . . . . . . . . . & V W p o a n n n a a a a a B 6 X C ) f + + @ ",
". + . # - Y G B a a a a n n n n n n a u m C O f . . . . . . . . . . . . f e C A Z n n n n n a a a a a a E G ` r & . + @ ",
". . f ) }  ...a a a a a n n n n n n n E +.] U & . . . . . . . . . . . . & U ] +.E n n n n n a a a a a a a .. .} , f + @ ",
". . % F @.i B a a a a a n n n n n n n n ..w C , ' . . . . . . . . . . ' = P w ..a n n n n n a a a a a a a B i #._ # + @ ",
". f = $.X o a a a a a a n n n n n n n n E j %._ &.. . . . . . . . . . &._ ` j E n n n n n n a a a a a a a a o X $.e f @ ",
". & *.@.j E a a a a a a n n n n n n n n a o =.-.;.* . . . . . . . . * L >.t o a n n n n n n a a a a a a a a E j @.*.& @ ",
". &.} ,...a a a a a a a n n n n n n n n n B 6 ^ v &.. . . . . . . * ~ x X R B n n n n n n n a a a a a a a a a ..,.} &.@ ",
"' [ '.).J a a a a a a a n n n n n n n n n n o M 3 ~ f . . . . . . $ *.Y p 0 n n n n n n n n a a a a a a a a a J ).'.[ !.",
"& r %.i B a a a a a a a n n n n n n n n n n o ~.{., f . . . . . . O ].@.+.J n n n n n n n n a a a a a a a a a B i %.r ^.",
"& ( : 6 a a a a a a a a n n n n n n n n n B 1 : v H * # &.= = &.# % , P ^ 1 B n n n n n n n a a a a a a a a a a 6 : ( + ",
"O /.A u a a a a a a a a n n n n n n n n a 0 (._.8 & O - l _.:.C *.O & 8 K (.0 a n n n n n n a a a a a a a a a a u A < . ",
"~ <.(.0 a a a a a a a a n n n n n n n n B [.k > &.O ( / }.M ~.}./ _ O &.> k 1 B n n n n n n a a a a a a a a a a 0 (.|.* ",
"L 1.+.B a a a a a a a a n n n n n n n n u M _.[ $ F ] M u E E Z t / F $ y _.~.o n n n n n n a a a a a a a a a a B +.1.& ",
"V 2.G n a a a a a a a a n n n n n n n n 3.k { H [ _.2 Z B n n B Z 5 :., &.g D 3.a n n n n n a a a a a a a a a a a G 2.# ",
"V 2.G a B B B B B B B B a a a a a a a a | ] V $ r I i B n n n n B i I r $ V ] | B a a a a a B B B B B B B B B B B G 2.# ",
"s :.m ).t t ).t t t ).t t ).t t t ).t t : <.) $ > }.R a n n n n a R }.> $ ~ $.: ).t t ).t t t ).t t t ).t t ).t t Q K * ",
"e ( x 3 3 3 3 3 3 3 >.3 3 3 3 3 3 >.3 3 C F &.$ > }...n n n n n a ..,.> $ &.*.l >.3 3 3 3 3 3 >.3 3 3 3 3 3 >.3 3 x ! + ",
"* $ ) ~ ~ ~ ~ y , y ~ ~ , y y , y ~ y , = % ' & r I i a n n n n B 9 h r & ' % = ~ ~ , y y , y ~ y , y y , ~ ~ y , ) $ !.",
"+ + . . + + + + + + + + . . . . . . . . . . . ' , :.w u n n n B Z 5 :., ' . . . . . . . . . + + + + + + + + + + + + + @ ",
". + . . + + + + + + + + . . . . . . . . . . . . % F / t Z E E Z t ] F % . . . . . . . . . . + + + + + + + + + + + + + @ ",
"+ . + . + + + + + + + + . . . . . . . . . . . + f O _ T X M ~.}.] F e f . . . . . . . . . . + + + + + + + + + + + + + @ ",
". + . . + + + + + + + + . . . . . . . . . . . + . ' O *.P _._.C F &.' . . . . . . . . . . . + + + + + + + + + + + + + @ ",
"+ + . . + + + + + + + + . . . . . . . . . . . + . ' * # O = ) &.$ & ' . . . . . . . . . . . + + + + + + + + + + + + + @ ",
". . + . + + + + + + + + . . . . . . . . . . . f # y 4 s = e &.= 8 ;.y # f . . . . . . . . . + + + + + + + + + + + + + @ ",
". + . . + + + + + + + + . . . . . . . . . . . * 8 x 4.>.$.P C $.-.4.x 8 & . . . . . . . . . + + + + + + + + + + + + + @ ",
"+ + . . + + + + + + + + . . . . . . . . . . . e { c +.S M ~.(.M S +.5.d ) ' . . . . . . . . + + + + + + + + + + + + + @ ",
". . . . + + + + + + + + . . . . . . . . . . & V {.+.0 E J 0 0 J E 0 G q _ $ . . . . . . . . + + + + + + + + + + + + + @ ",
"+ + + . + + + + + + + + . . . . . . . . . * , P A Z B n n n n n n B o 2 3 8 * . . . . . . . + + + + + + + + + + + + + @ ",
"+ . + . + + + + + + + + . . . . . . . . . $ > 6.G E n n n n n n n n B 3.k g &.. . . . . . . + + + + + + + + + + + + + @ ",
"+ . . . + + + + + + + + . . . . . . . . * s 3 ).0 a n n n n n n n n n o S {.L % . . . . . . + + + + + + + + + + + + + @ ",
". + . . + + + + + + + + . . . . . . . f O /.c [.B n n n n n n n n n n B R }.P ~ f . . . . . + + + + + + + + + + + + + @ ",
"+ . . 7.8.8.8.8.8.8.8.8.8.8.<.. . . . # *./ S J a n n n n n n n n n n 9.0.a.b.c.d.U * . . . + ;.,.8.8.8.e.U $ + + + + @ ",
"+ + + f.g.g.g.g.g.g.g.g.g.g.{.. . . ' , _.w u B n n n n n n n n n n h.g.g.g.g.g.g.g. .. . . <.i.g.g.g.g.g.g.E + + + + @ ",
". . + - T T T j.g.g.0.T T T [ . . . % _ h 9 B a n n n n n n n n n n k.g.g.l.m.n.g.g.o.. . . J g.g.g.T p.g.g.g.+ + + + @ ",
"+ + + . + + + o.g.g.q.+ . . . . { 5.g.g.g.g.r.s.n n n n n n n n n t.g.g.g.u.o v.g.g.g.J . {.g.g.g.{.+ . o.g.g.q.+ + + @ ",
". . + . + + + o.g.g.q.+ . . . { 8.g.g.g.g.g.g.8.n n n n n n n n n t.g.g.g.u.B 6 g.g.g.J . {.g.g.g.{.+ + o.g.g.q.+ + + @ ",
". + . . + + + o.g.g.q.+ . . . X g.g.g.w.d.9.j.8.n n n n n n n n n t.g.g.g.x.a E g.g.g.J . {.g.g.g.X + + o.g.g.q.+ + + @ ",
". . . . + + + o.g.g.q.+ . . . g.g.g.a.d.B n y.q.n z.z.z.z.z.z.A.n B.C.g.g.D.z.z.g.g.g.B f > 0.g.g.g.t t E.g.g.q.+ + + @ ",
". + + . + + + o.g.g.q.+ . . . g.g.g.F.E n n n a n g.g.g.g.g.g.t.n n G.H.g.g.g.H.g.g.g.I.% . 6 J.g.g.g.K.L.g.g.q.+ + + @ ",
". . . . + + + o.g.g.q.+ . . . g.g.g.M.a n n n a n o.o.o.o.o.o.N.n n n m.o.o.o.O.g.g.K.p = . + s u.u.u.v.P.g.g.M + + + @ ",
"+ . . . + + + o.g.g.q.+ . . . g.g.g.M.a n n Q.R.n n n n n n n n n n n n n n n k.g.g.a.:.8 . + + + + + J g.g.g.+ + + + @ ",
". . . . + + + o.g.g.q.+ . . . h g.g.S.T.A.B.U.8.n n n n n n n n n n G.w.w.w.F.L.g.V. .7 , . 6 Y <.<. .W.g.j.'.+ + + + @ ",
"+ . . . + + + o.g.g.q.+ . . . ].z.g.g.g.g.g.g.F.J B n n n n n n n n k.g.g.g.g.g.X.c g [ % . J g.g.g.g.g.E.>.+ + + + + @ ",
". . + . + + + Y.k.k.Q.+ . . . . V / k.k.Z.n.`.M M | 9 9 9 9 9 9 9 9 F.i.P.a.n.=.P 8 $ * . . G k.k.k.k.v.> + + + + + + @ ",
"+ . + . + + + + + + + + . . . . . . f ' H ~ U < _./ 4.q 4.4.4.q 4.4./ _.< U y &.' f . . . . + + + + + + + + + + + + + @ ",
". . . . + + + + + + + + . . . . . . . . . f * &.y V r U r U - U - r ;.[ O * f . . . . . . . + + + + + + + + + + + + + @ "};
