/* XPM */
static char * tc99on_xpm[] = {
"60 60 64 1",
" 	c #F7DEFBEE0000",
".	c #FFFFFBEE1040",
"X	c #F7DEF3CE0000",
"o	c #F7DEE38D0000",
"O	c #F7DECB2B0000",
"+	c #F7DEB2CA0000",
"@	c #F7DEBAEA0000",
"#	c #F7DEC30B0000",
"$	c #FFFF79E70000",
"%	c #FFFF59650000",
"&	c #F7DEEBAD0000",
"*	c #F7DEDB6C0000",
"=	c #FFFFA6990000",
"-	c #FFFF20810000",
";	c #FFFF10400000",
":	c #FFFF38E30000",
">	c #FFFF8A280000",
",	c #F7DED34C0000",
"<	c #FFFF08200000",
"1	c #FFFF00000000",
"2	c #FFFF18610000",
"3	c #FFFF51440000",
"4	c #FFFF65950000",
"5	c #FFFF28A20000",
"6	c #FFFF71C60000",
"7	c #FFFF30C20000",
"8	c #F7DEAAAA0000",
"9	c #FFFF41030000",
"0	c #FFFF9A690000",
"q	c #FFFF49240000",
"w	c #F7DE9A690000",
"e	c #FFFF82070000",
"r	c #FFFFEBAD1040",
"t	c #FFFF92480000",
"y	c #8E3892480000",
"u	c #28A228A20000",
"i	c #BEFBBEFB0000",
"p	c #DF7D00000000",
"a	c #79E700000000",
"s	c #208108200000",
"d	c #28A220810000",
"f	c #514455550000",
"g	c #E79DE79D0000",
"h	c #38E334D30000",
"j	c #000000000000",
"k	c #AEBA00000000",
"l	c #104008200000",
"z	c #D75CCB2B0000",
"x	c #AEBAB2CA0000",
"c	c #186118610000",
"v	c #410304100000",
"b	c #104000000000",
"n	c #CF3C20810000",
"m	c #208120810000",
"M	c #71C645140000",
"N	c #965800000000",
"B	c #618508200000",
"V	c #CF3C00000000",
"C	c #C71B00000000",
"Z	c #861775D60000",
"A	c #596500000000",
"S	c #8E3800000000",
"D	c #B6DA9A690000",
"F	c #186110400000",
"                                                           .",
"                                                           .",
"                                                           .",
"                                                           .",
"             XXXX                          XXXX            .",
"           XoO+@o                          o#+OoX          .",
"          Xo@$%$#X                        &#$%$+oX         .",
"         X*=%-;:>,                        *>:;-%=*X        .",
"        Xo=%-<123+&                      X@421<-%=oX       .",
"       X*+3-<11<56OX                    X*>7<11<-38*X      .",
"      X*=32<1111<90*                    o8q;1111<2%=*X     .",
"      o+%-<111111-6#                   X#6-111111<-%+o     .",
"     &#4-11111111<:>o                  o>:<11111111-4#&    .",
"    X,>7<1111111112%@&                &@42111111111<7>,X   .",
"    &wq;1111111111<5$OX              XOe5<1111111111;q=o   .",
"   XO4-111111111111<3=&              o=q<111111111111-4OX  .",
"   o89;11111111111115$OX            XO$51111111111111;98o  .",
"  X#6211111111111111;9=o            o=9;1111111111111126#X .",
"  o0q<111111111111111-4#&          &#4-111111111111111<q0o .",
" XO6-1111111111111111<7e,         X,>7<1111111111111111-6OX.",
" &=9;11111111111111111;%=&       Xo=q;11111111111111111;9=&.",
" *>7111111111111111111<7>o       &#45<1111111111111111117>*.",
"XO42111111111111111111<:eo       &@65111111111111111111124Or",
"X#%;111111111111111111;%8& X&oo&XXow%;111111111111111111;%#r",
"&+q<11111111111111111<:t*X&O=tt=O&X*t:<11111111111111111<q+r",
"*0:<111111111111111112%@&&#$q77q$#&&@%;11111111111111111<:0r",
",e511111111111111111<7t*X#$7<11<7$#&*t:<111111111111111115er",
"O$-111111111111111112%+&*t:<1111<:to&@%211111111111111111-$r",
",$-11111111111111111-$,XO4211111124OX,$-11111111111111111-$r",
",t377777777777777777%0oX@q;111111;q@Xo0%77777777777777777qtr",
"o#0>>>>>>>>>>>>>>>>>=#&X@q;111111;9@X&O=>>>>>>>>>>>>>>>>>0#r",
" Xooooo*o*ooo**o*o*ooX XO42111111-4OX Xoooo**o*o*o**ooo*ooX.",
"                        ot9<1111<:to                       .",
"                        X#$7<11<7$#X                       .",
"                         &#$q77q$#&                        .",
"                          &O=tt=#&                         .",
"                          XX&oo&XX                         .",
"                        X*,*o&&o*,*X                       .",
"                       X*w$>0==0>$w*X                      .",
"                       &+35577:7553+o                      .",
"                      X,e5<111111<-6#&                     .",
"                      o=q<11111111<:>*                     .",
"                     X@4-11111111112%@&                    .",
"                     ,>7<1111111111<5e,X                   .",
"                    &+3;111111111111;q=*                   .",
"   yuuuuuuuuuui    XO$5111111111111passdfg     gyuuuhgg    .",
"   yjjjjjjjjjji    ow9<11111111111kjjjjjjjy   iljjjjjjf    .",
"   zxxxcjjhxxxg   X#42111111111111vjjbnsjjm   Mjjjxfjjj    .",
"       mjjf     iyjjjjbp111111111Njjjp<5jjjM ijjji  mjjf   .",
"       mjjf    iujjjjjjB111111111Njjjp1;jjjM ijjji  mjjf   .",
"       mjjf    yjjjnppvB111111111Njjjk11jjjM ijjjy  mjjf   .",
"       mjjf    jjjsn11nk1aaaaaaV1CsjjbaajjjM zhjjjZZljjf   .",
"       mjjf    jjjB111111jjjjjjN11vbjjjbjjjMX Zljjjljjjf   .",
"       mjjf    jjjB111111AAAAAAk111VAAASjjbZo  gfffZljjy   .",
"       mjjf    jjjB111pk111111111111111vjjst*      Mjjj    .",
"       mjjf    yjjjMCCsB1111111111vCCCajjsn8o ZDiiyjjci    .",
"       mjjf    zhjjjjjjB1111111111vjjjjjsD@*X Mjjjjjli     .",
"       hccf     gDccccvn7---------BlFFcZz*&   ZccccZz      .",
"                    &oO+t$66666666$t+O*&                   .",
"                      X&*,OOOOOOOO,*&X                     ."};
