/* XPM */
static char * toolbox_xpm[] = {
"60 60 494 2",
"  	c None",
". 	c #F6FF00",
"+ 	c #F6FE00",
"@ 	c #F7FF00",
"# 	c #FCFF16",
"$ 	c #F7FE00",
"% 	c #F6FD00",
"& 	c #F6F400",
"* 	c #F6F000",
"= 	c #F6F100",
"- 	c #F6F500",
"; 	c #F7F400",
"> 	c #F7FD00",
", 	c #F7F700",
"' 	c #F6E600",
") 	c #F6CB00",
"! 	c #F6B000",
"~ 	c #F6BF00",
"{ 	c #F6E200",
"] 	c #F6FA00",
"^ 	c #F6E300",
"/ 	c #F6C100",
"( 	c #F7CB00",
"_ 	c #F7E600",
": 	c #F7E100",
"< 	c #F6B900",
"[ 	c #F97B00",
"} 	c #FC5800",
"| 	c #FA7E00",
"1 	c #F6C400",
"2 	c #F6F300",
"3 	c #F6EF00",
"4 	c #F6C500",
"5 	c #FC5900",
"6 	c #F97D00",
"7 	c #F7B500",
"8 	c #F7DC00",
"9 	c #F8AB00",
"0 	c #FD5800",
"a 	c #FE2500",
"b 	c #FE1600",
"c 	c #FE3A00",
"d 	c #FA8C00",
"e 	c #F6D800",
"f 	c #F6F800",
"g 	c #020204",
"h 	c #F6F900",
"i 	c #F6DC00",
"j 	c #FA8B00",
"k 	c #FE3C00",
"l 	c #FE1500",
"m 	c #FE2600",
"n 	c #F8A800",
"o 	c #F7DB00",
"p 	c #F7E000",
"q 	c #FD5900",
"r 	c #FE2000",
"s 	c #FE0800",
"t 	c #FE0100",
"u 	c #FE1C00",
"v 	c #FC5700",
"w 	c #F7B200",
"x 	c #F6E900",
"y 	c #F6FB00",
"z 	c #1A1A24",
"A 	c #AA956C",
"B 	c #AFAFAF",
"C 	c #C3C3C0",
"D 	c #AAAAAA",
"E 	c #0A0A0C",
"F 	c #E5E5E5",
"G 	c #F7BA00",
"H 	c #FC6100",
"I 	c #FE1E00",
"J 	c #FF0800",
"K 	c #FF2100",
"L 	c #FD5C00",
"M 	c #F8A500",
"N 	c #F7F600",
"O 	c #F7DD00",
"P 	c #F7B100",
"Q 	c #FD5100",
"R 	c #FE0900",
"S 	c #FE0000",
"T 	c #FE0B00",
"U 	c #FE2800",
"V 	c #FC7200",
"W 	c #F6CC00",
"X 	c #F6F200",
"Y 	c #BDBDBE",
"Z 	c #CEB18F",
"` 	c #727272",
" .	c #565654",
"..	c #4E4E4C",
"+.	c #060604",
"@.	c #E2E2E2",
"#.	c #F88F00",
"$.	c #FE3100",
"%.	c #FE0C00",
"&.	c #FF0000",
"*.	c #FF0900",
"=.	c #FD5400",
"-.	c #F7AE00",
";.	c #FD5600",
">.	c #FF1C00",
",.	c #FE4200",
"'.	c #F8A000",
").	c #F6DE00",
"!.	c #939393",
"~.	c #444444",
"{.	c #DFDFDF",
"].	c #F6FC00",
"^.	c #F6E100",
"/.	c #F6AA00",
"(.	c #FD4C00",
"_.	c #FE1400",
":.	c #FE0200",
"<.	c #F8A300",
"[.	c #F7FB00",
"}.	c #FF2200",
"|.	c #FF0100",
"1.	c #FE0400",
"2.	c #FE2200",
"3.	c #FB7400",
"4.	c #F6C600",
"5.	c #7E7E7C",
"6.	c #DCDCDC",
"7.	c #F6C800",
"8.	c #FA7500",
"9.	c #FE0300",
"0.	c #FF2300",
"a.	c #F7EE00",
"b.	c #F7C100",
"c.	c #FD6100",
"d.	c #FF2000",
"e.	c #FF0700",
"f.	c #F99000",
"g.	c #6F6F6A",
"h.	c #2E1604",
"i.	c #221204",
"j.	c #D9D9DA",
"k.	c #F6E400",
"l.	c #F7F500",
"m.	c #F7D300",
"n.	c #F98E00",
"o.	c #FE3600",
"p.	c #FE1D00",
"q.	c #FC5F00",
"r.	c #866E4C",
"s.	c #321604",
"t.	c #D6D6D7",
"u.	c #F6C000",
"v.	c #F7E900",
"w.	c #F7A300",
"x.	c #FC4E00",
"y.	c #FF1300",
"z.	c #FF0300",
"A.	c #FE2B00",
"B.	c #FC7D00",
"C.	c #C0AA8F",
"D.	c #B39C75",
"E.	c #361604",
"F.	c #D3D3D4",
"G.	c #F88700",
"H.	c #FE0A00",
"I.	c #FF1500",
"J.	c #FE4A00",
"K.	c #F9A200",
"L.	c #F7E500",
"M.	c #FB6C00",
"N.	c #FF2400",
"O.	c #FF0200",
"P.	c #FD5000",
"Q.	c #F8A400",
"R.	c #F6EA00",
"S.	c #F7FC00",
"T.	c #CDB89D",
"U.	c #D0D0D1",
"V.	c #FD4D00",
"W.	c #FE0E00",
"X.	c #FF0500",
"Y.	c #FB6D00",
"Z.	c #F7CD00",
"`.	c #F7AD00",
" +	c #FF3F00",
".+	c #FF1000",
"++	c #FE0500",
"@+	c #FE2A00",
"#+	c #FA7B00",
"$+	c #F7CF00",
"%+	c #D9C6AC",
"&+	c #BCA27D",
"*+	c #CDCDCF",
"=+	c #F7E300",
"-+	c #F7F200",
";+	c #F6C700",
">+	c #FC6F00",
",+	c #FF1E00",
"'+	c #FE1100",
")+	c #FE4100",
"!+	c #E6D4BB",
"~+	c #C5A986",
"{+	c #CACACC",
"]+	c #FC7000",
"^+	c #F7C600",
"/+	c #F7F300",
"(+	c #F6E500",
"_+	c #F99C00",
":+	c #FF0A00",
"<+	c #FE2100",
"[+	c #FB6B00",
"}+	c #F7C500",
"|+	c #F6EC00",
"1+	c #02021C",
"2+	c #F2E2C9",
"3+	c #C7C7C9",
"4+	c #F7E700",
"5+	c #F7C800",
"6+	c #FB7100",
"7+	c #FF0400",
"8+	c #FE3400",
"9+	c #FB8600",
"0+	c #F6D400",
"a+	c #02022C",
"b+	c #F3E3CA",
"c+	c #866E4B",
"d+	c #AA0204",
"e+	c #C4C4C6",
"f+	c #F6ED00",
"g+	c #F8AC00",
"h+	c #FE4500",
"i+	c #FF1100",
"j+	c #020224",
"k+	c #816A49",
"l+	c #BEBEBC",
"m+	c #AE0204",
"n+	c #D20204",
"o+	c #C1C1C4",
"p+	c #FF4500",
"q+	c #F7ED00",
"r+	c #FCFD16",
"s+	c #F6DD00",
"t+	c #F89000",
"u+	c #FE2F00",
"v+	c #02024C",
"w+	c #BABAFC",
"x+	c #EBD6B5",
"y+	c #7D6647",
"z+	c #FEFEFC",
"A+	c #E6E6E4",
"B+	c #CE0204",
"C+	c #E55055",
"D+	c #FF2F00",
"E+	c #FCFC16",
"F+	c #F6F700",
"G+	c #FD6700",
"H+	c #B2B2FC",
"I+	c #786345",
"J+	c #F7CC00",
"K+	c #FCF716",
"L+	c #02020C",
"M+	c #AAAAFC",
"N+	c #2E2E2C",
"O+	c #EAD6B5",
"P+	c #745F43",
"Q+	c #C2C2C4",
"R+	c #FF1400",
"S+	c #F7C400",
"T+	c #FCF516",
"U+	c #F6EB00",
"V+	c #F6B700",
"W+	c #FE0D00",
"X+	c #02023C",
"Y+	c #A2A2FC",
"Z+	c #A6A6FC",
"`+	c #020284",
" @	c #E0CBAB",
".@	c #705B40",
"+@	c #A20E0C",
"@@	c #820604",
"#@	c #FF0D00",
"$@	c #F7B600",
"%@	c #FCF216",
"&@	c #F6DF00",
"*@	c #F99B00",
"=@	c #FE3B00",
"-@	c #9E9EFC",
";@	c #D5C0A1",
">@	c #6B583E",
",@	c #D0D0CE",
"'@	c #9B9B9A",
")@	c #BA0E0E",
"!@	c #8E1212",
"~@	c #020234",
"{@	c #F99900",
"]@	c #FCED16",
"^@	c #F6D300",
"/@	c #FB8000",
"(@	c #FF2900",
"_@	c #9696FC",
":@	c #000000",
"<@	c #CBB598",
"[@	c #67543C",
"}@	c #9F9FA0",
"|@	c #FCEA16",
"1@	c #F6D000",
"2@	c #FB7800",
"3@	c #8E8EFC",
"4@	c #9292FC",
"5@	c #635039",
"6@	c #FCE716",
"7@	c #F6D100",
"8@	c #FB7900",
"9@	c #8686FC",
"0@	c #8A8AFC",
"a@	c #8282FC",
"b@	c #6666FC",
"c@	c #F99100",
"d@	c #FE4E00",
"e@	c #FF3100",
"f@	c #FF3000",
"g@	c #FE3000",
"h@	c #7E7EFC",
"i@	c #01016C",
"j@	c #5050CE",
"k@	c #4D4DCE",
"l@	c #02DAD4",
"m@	c #0202FC",
"n@	c #FE4D00",
"o@	c #FCEC16",
"p@	c #F6E700",
"q@	c #F6C200",
"r@	c #F99F00",
"s@	c #F98B00",
"t@	c #F98D00",
"u@	c #F98C00",
"v@	c #7A7AFC",
"w@	c #7676FC",
"x@	c #7272FC",
"y@	c #4A4644",
"z@	c #C9C9CE",
"A@	c #4949CE",
"B@	c #01B2AD",
"C@	c #0202DC",
"D@	c #F99D00",
"E@	c #FCF416",
"F@	c #F7E200",
"G@	c #F7DF00",
"H@	c #6E6EFC",
"I@	c #6A6AFC",
"J@	c #12129C",
"K@	c #16168C",
"L@	c #4343CE",
"M@	c #4646CE",
"N@	c #0202C4",
"O@	c #F7F000",
"P@	c #6262FC",
"Q@	c #5E5EFC",
"R@	c #3C3CCE",
"S@	c #3F3FCE",
"T@	c #22228C",
"U@	c #5A5AFC",
"V@	c #5656FC",
"W@	c #5252FC",
"X@	c #F6F6F4",
"Y@	c #4646FC",
"Z@	c #3636CE",
"`@	c #02C2C4",
" #	c #4E4EFC",
".#	c #4A4AFC",
"+#	c #3E3EFC",
"@#	c #3A3AFC",
"##	c #7682B4",
"$#	c #4242FC",
"%#	c #3636FC",
"&#	c #3232FC",
"*#	c #2E2EFC",
"=#	c #2A2AFC",
"-#	c #2626FC",
";#	c #0222F4",
">#	c #B6B6B4",
",#	c #2222FC",
"'#	c #1E1EFC",
")#	c #AEAEAC",
"!#	c #1A1AFC",
"~#	c #F6F6FC",
"{#	c #A6A6A4",
"]#	c #9A9A9C",
"^#	c #1616FC",
"/#	c #1212FC",
"(#	c #0E0EFC",
"_#	c #06060C",
":#	c #828284",
"<#	c #929294",
"[#	c #0A0AFC",
"}#	c #0606FC",
"|#	c #8A8A8C",
"1#	c #0E0E0C",
"2#	c #F9A100",
"3#	c #F6E000",
"4#	c #02AAAC",
"5#	c #FE1F00",
"6#	c #F8FF00",
"7#	c #FAFF00",
"8#	c #FAFE00",
"9#	c #F9FF00",
"0#	c #121214",
"a#	c #161614",
"b#	c #F99300",
"c#	c #F8FB00",
"d#	c #FDFE00",
"e#	c #FBFE00",
"f#	c #FFFF00",
"g#	c #FEFE00",
"h#	c #FEFF00",
"i#	c #FCFF00",
"j#	c #FBF400",
"k#	c #FBFF00",
"l#	c #FDFF00",
"m#	c #F6DB00",
"n#	c #F89C00",
"o#	c #FE2E00",
"p#	c #FAE600",
"q#	c #FCF900",
"r#	c #FCFE00",
"s#	c #FFFF16",
"t#	c #FAF700",
"u#	c #F9BA00",
"v#	c #FE1A00",
"w#	c #FE3E00",
"x#	c #F9AC00",
"y#	c #FFFF09",
"z#	c #F7DA00",
"A#	c #FB6000",
"B#	c #FE0700",
"C#	c #020244",
"D#	c #F7CA00",
"E#	c #F8FE00",
"F#	c #F8B300",
"G#	c #FE1000",
"H#	c #FE4000",
"I#	c #FCF600",
"J#	c #FC3900",
"K#	c #FE2300",
"L#	c #FC7500",
"M#	c #FAE900",
"N#	c #FEFD00",
"O#	c #FB7C00",
"P#	c #FE4400",
"Q#	c #FE3800",
"R#	c #F89100",
"S#	c #F6D900",
"T#	c #FFFF0E",
"U#	c #F8EA00",
"V#	c #F7DE00",
"W#	c #FD2800",
"X#	c #FE0F00",
"Y#	c #F7AF00",
"Z#	c #F8E600",
"`#	c #FEFF16",
" $	c #F8C700",
".$	c #FA8400",
"+$	c #FE4800",
"@$	c #FE3200",
"#$	c #FE0600",
"$$	c #FE1800",
"%$	c #FD1F00",
"&$	c #FA5E00",
"*$	c #FAA500",
"=$	c #FCFA00",
"-$	c #FAEF00",
";$	c #F8AD00",
">$	c #F89400",
",$	c #FD6A00",
"'$	c #FE4C00",
")$	c #FE3500",
"!$	c #FE1200",
"~$	c #FB5100",
"{$	c #F8B600",
"]$	c #FCF500",
"^$	c #F9FE00",
"/$	c #F6EE00",
"($	c #F6CE00",
"_$	c #FA9400",
":$	c #FB7D00",
"<$	c #FB7700",
"[$	c #FB7300",
"}$	c #FB7500",
"|$	c #F6B500",
"1$	c #F9EF00",
"2$	c #FCEC00",
"3$	c #FCE800",
"4$	c #FCE700",
"5$	c #FBE900",
". . . + @ @ @ @ @ @ @ @ + + + + + + + + + + + @ + + + + + + + + + + + + + + + + + + + + + + @ @ @ @ @ @ @ @ @ @ @ @ @ # ",
". @ . + @ @ @ @ @ @ @ @ + + + + + + + + + + + @ + + + + + + + + + + + + + + + + + + + + + + @ @ @ @ @ @ @ @ @ @ @ @ @ # ",
". . . + @ @ @ @ @ @ @ @ + + + + + + + + + + + @ + + + + + + + + + + + + + + + + + + + + + + @ @ @ @ @ @ @ @ @ @ @ @ @ # ",
". . . + @ @ @ @ @ @ @ @ + + + + + + + + + + + @ + + + + + + + + + + + + + + + + + + + + + + @ @ @ @ @ @ @ @ @ @ @ @ @ # ",
". $ . + @ @ @ @ @ @ @ $ % & * = - + + + + + + @ + + + + + + + + + + + + + + + + + + + - = * ; > $ @ @ @ @ @ @ @ @ @ @ # ",
". @ . + @ @ @ @ @ @ $ , ' ) ! ~ { ] + + + + + @ + + + + + + + + + + + + + + + + + + ] ^ / ! ( _ , $ @ @ @ @ @ @ @ @ @ # ",
". . . + @ @ @ @ @ @ , : < [ } | 1 2 + + + + + @ + + + + + + + + + + + + + + + + + + 3 4 | 5 6 7 : , @ @ @ @ @ @ @ @ @ # ",
". . . + @ @ @ @ $ , 8 9 0 a b c d e f + + + + @ + + g g g g g g + + + + + g + + + h i j k l m 0 n o , $ @ @ @ @ @ @ @ # ",
". + . + @ @ @ $ , p n q r s t u v w x y + + + g g z A B C D B D E + + + g F g + % = G H I t J K L M p , $ @ @ @ @ @ @ # ",
". . . + @ @ $ N O P Q K R S S T U V W X + g g D Y A Z A ` `  ...+.+ + + g @.g + & e #.$.%.S &.*.K =.-.O N $ @ @ @ @ @ # ",
". . . + @ $ , 8 M ;.>.J S S S t T ,.'.).g D C !.!.`  ..... . .~.g + + + g {.g ].^./.(._.:.S &.&.J >.q <.8 , $ @ @ @ @ # ",
". . . + @ [._ P q }.J |.S S S S 1.2.3.4.g 5.5.5. .....~. .~.g g + + + + g 6.g - 7.8.m 9.S S &.&.|.J 0.q P _ [.@ @ @ @ # ",
". . $ + > a.b.c.d.e.&.&.S S S S S T k f.g g.g.g... .~.h.i.g + + + + + + g j.g k.f.k T S S S &.&.&.&.e.d.c.b.a.> @ @ @ # ",
". . . + l.m.n.o.*.&.&.&.S S S S S 1.p.q.g g.g.g. .g g g r.s.+ + + + + + g t.g u.q.p.1.S S S &.&.&.&.&.*.o.n.m.l.@ @ @ # ",
". . . y v.w.x.y.z.&.&.&.S S S S S S T A.B.g g g g g C.D.r.E.+ + + + + + g F.g G.U H.S S S S &.&.&.&.&.z.I.J.K.L.[.@ @ # ",
". . + & ( M.N.O.&.&.&.&.S S S S S S t %.P.Q.R.S.+ g T.D.r.s.+ + + + + + g U.g V.W.S S S S S &.&.&.&.&.&.X.0.Y.Z.N $ @ # ",
". $ ].^ `. +.+|.&.&.&.&.S S S S S S S ++@+#+$+N + g %+&+r.E.+ + + + + + g *+g @+++S S S S S &.&.&.&.&.&.|..+ +`.=+S.@ # ",
". . -+;+>+,+z.&.&.&.&.&.S S S S S S S S '+)+Q.=+h g !+~+r.s.+ + + + + h g {+g '+S S S S S S &.&.&.&.&.&.&.z.,+]+^+/+@ # ",
". ].(+_+J.:+|.&.&.&.&.&.S S S S S S S S ++<+[+}+|+1+2+Z r.s.+ + + + + g g 3+g g S S S S S S &.&.&.&.&.&.&.|.:+J._+4+S.# ",
". - 5+6+0.7+&.&.&.&.&.&.S S S S S S S S t T 8+9+0+a+b+Z c+s.g g + + g d+d+e+d+d+g S S S S S &.&.&.&.&.&.&.&.7+0.6+5+l.# ",
"> f+g+h+i+&.&.&.&.&.&.&.S S S S S S S S S :._.0 j+a+b+Z k+s.l+l+g g g m+n+o+m+m+g S S S S S &.&.&.&.&.&.&.&.&.i+p+g+q+r+",
"] s+t+u+e.&.&.&.&.&.&.&.S S S S S S S S S S H.v+w+1+x+~+y+E.z+A+l+l+1+d+B+C+d+d+g S S S S S &.&.&.&.&.&.&.&.&.e.D+#.8 E+",
"F+W G+u O.&.&.&.&.&.&.&.S S S S S S S S S S a+H+H+z x+~+I+s.z+z+z+A+l+g B+C+d+g S S S S S S &.&.&.&.&.&.&.&.&.O.>.G+J+K+",
"- 1 q _.&.&.&.&.&.&.&.&.S S S S S S S S S L+M+M+M+N+O+&+P+E.Q+z+z+z+z+g B+C+d+g S S S S S S &.&.&.&.&.&.&.&.&.&.R+q S+T+",
"U+V+(.W+&.&.&.&.&.&.&.&.S S S S S S S S X+Y+Z+Y+`+N+ @D..@s.z+Q+Q+z+g +@B+C+d+@@g g S S S S &.&.&.&.&.&.&.&.&.&.#@(.$@%@",
"&@*@=@s &.&.&.&.&.&.&.&.S S S S S S S g -@-@-@`+z+N+;@D.>@s.z+z+,@'@g )@B+C+m+!@g l+~@g S S &.&.&.&.&.&.&.&.&.&.J =@{@]@",
"^@/@(@9.&.&.&.&.&.&.&.&.S S S S S S 1+_@_@_@`+z+z+:@<@A [@g }@,@,@,@g n+B+C+d+m+g A+l+l+1+g &.&.&.&.&.&.&.&.&.&.z.(@/@|@",
"1@2@}.S &.&.&.&.&.&.&.&.S S S S S 1+3@4@3@`+z+z+z+g C.A 5@g ,@}@}@,@g n+B+C+d+d+g z+z+A+l+l+g g &.&.&.&.&.&.&.&.&.}.2@6@",
"7@8@N.t |.|.|.|.|.|.|.|.t t t t v+9@0@9@a@`+z+z+z+z+g g g ,@,@,@,@'@g )@n+C+m+!@g z+z+z+z+`+b@b@g g |.|.|.|.|.|.|.N.8@6@",
"e c@d@u+e@e@D+f@e@e@D+e@$.g@g@~@a@h@h@h@h@h@`+`+z+z+z+z+z+Q+Q+z+,@,@g +@B+C+d+@@g Q+,@,@i@j@j@k@l@m@g f@e@e@D+e@e@n@f.o@",
"p@q@r@s@t@t@s@u@t@t@s@t@t@s@L+v@v@v@w@w@w@x@x@x@`+`+z+z+z+z+z+Q+Q+z+z+y@+@C+@@y@l+z@,@i@A@A@A@B@m@C@g s@t@t@s@t@t@D@b.E@",
"f * (+^.F@F@: G@=+G@F@: { a+x@x@H@x@`+H@H@H@I@I@I@I@J@K@z+z+z+z+z+l+l+g +@+@@@g l+,@i@L@M@L@B@m@C@N@g p F@: F@G@=+L.O@E+",
". @ @ + @ @ @ @ @ @ @ @ v+I@I@I@I@`+l+`+`+P@P@Q@Q@Q@Q@Q@`+`+z+z+z+z+z+l+g g g l+,@i@R@S@R@B@m@C@N@a+@ @ @ @ @ @ @ @ @ # ",
". . . + @ @ @ @ @ @ @ a+b@b@P@P@`+l+l+l+l+T@`+U@V@U@V@V@W@V@`+`+z+z+z+X@z+l+z+z+`+Y@Y@Z@`@m@C@N@1+@ @ @ @ @ @ @ @ @ @ # ",
". . . + @ @ @ @ @ @ L+Q@Q@U@U@`+l+Q+l+l+l+l+l+`+`+ # #.# #.#.#Y@`+`+z+z+z+z+z+`++#+#@#`@m@C@N@g @ @ @ @ @ @ @ @ @ @ @ # ",
". . . + @ @ @ @ @ X+V@V@V@V@`+l+l+l+`+ ###l+l+l+l+`+`+$#$#$#$#+#+#+#`+`+z+z+`+%#%#%#`@m@C@N@1+@ @ @ @ @ @ @ @ @ @ @ @ # ",
". . . + @ @ @ @ v+ # #.#.#`+l+l+l+`+Y@Y@Y@Y@l+l+l+l+l+`+`+@#@#@#%#%#&#&#`+`+*#&#*#`@m@C@N@a+@ @ @ @ @ @ @ @ @ @ @ @ @ # ",
". . . + @ @ @ g `@Y@Y@Y@`+l+Q+l+`+$#+#@#@#l+Q+Q+l+l+l+l+l+`+`+&#*#*#*#=#=#=#-#=#`@m@C@N@1++ @ @ @ @ @ @ @ @ @ @ @ @ @ # ",
". . + + @ @ @ g ;#`@`@`+>#>#>#`+@#%#%#%#>#>#>#>#>#>#>#>#`+=#-#`+`+-#,#,#,#,#'#`@m@C@N@g + + @ @ @ @ @ @ @ @ @ @ @ @ @ # ",
". . . + @ @ @ g N@C@;#`+X@)#)#)###*#*#)#)#)#)#)#)#)#)#`+,#,#'#'#'#`+`+!#!#!#`@m@C@N@j++ + + @ @ @ @ @ @ @ @ @ @ @ @ @ # ",
". @ . + @ @ @ g g N@N@`+l+X@~#{#{#{#{#{#{#]#{#{#{#{#`+'#!#!#!#^#^#/#`+/#(#`@m@C@N@j++ + + + @ @ @ @ @ @ @ @ @ @ @ @ @ # ",
". . . + @ @ @ @ @ g g `+5.l+l+~#X@]#]#]#]#]#]#]#]#`+/#/#/#(#/#(#(#`+(#(#`@m@C@N@g + + + + + @ @ @ @ @ @ @ @ @ @ @ @ @ # ",
". . @ + @ @ @ @ @ @ @ L+_#:#5.l+l+~#~#<#]#<#<#<#`+(#(#[#[#[#}#[#`+m@m@`@m@C@N@L++ + + + + + @ @ @ @ @ @ @ @ @ @ @ @ @ # ",
". . . + @ @ @ @ @ @ @ @ + g g 5.5.l+l+X@~#|#|#`+}#m@}#m@m@m@m@`+m@m@`@m@C@N@~@X + + + + + + @ @ @ @ @ @ @ @ @ @ @ @ @ # ",
". . . + @ @ @ @ @ @ @ @ + + + g g 5.5.l+l+X@1#m@m@m@m@m@m@m@`+m@m@`@m@C@N@1+2#3#y + + + + + @ @ @ @ @ @ @ @ @ @ @ @ @ # ",
". . @ + @ @ @ @ @ @ @ @ + + + + + g g 5.5.l+E `@`@m@m@m@m@`+m@m@4#m@C@N@g 5#Y.b.X + + + $ $ @ @ @ @ @ @ @ @ @ @ @ @ @ # ",
". 6#7#8#7#7#7#9#@ @ @ @ + + + + + + ] 0#a#5.g C@;#`@`@m@`+m@m@4#m@C@N@1+S T =@b#^.c#8#8#d#d#7#9#@ @ @ @ @ 6#7#7#7#@ @ # ",
". e#f#g#f#f#f#h#i#6#@ @ + + + + + + X 4 c.g g N@N@C@;#`@`+m@4#m@C@N@a+S S 9.I c.s+j#g#g#g#g#f#h#7#@ @ @ k#l#f#f#f#i#7## ",
". k#f#g#l#i#l#f#f#7#@ @ + + + + + ] m#n#8+T S g 1+N@N@C@`+4#m@C@N@L+S S S S T o#M p#q#r#r#d#f#f#f#7#@ i#f#f#f#f#f#f#f#s#",
". k#f#g#9#@ 6#h#f#f#@ @ e#e#e#+ ].t#u#,.v#9.S &.S g g N@`+m@C@N@g S S S S S 9._.w#x#k.].+ $ i#f#f#k#9#f#f#f#f#f#f#f#f#y#",
". k#f#g#9#@ @ l#f#f#@ @ d#g#g#+ & z#A#9.B#S S &.S S S g j+C#X+j+S S S S S S S ++m 3.D#c#E#8#h#f#k#@ 9#f#f#f#f#f#f#f#f#f#",
". k#f#g#9#@ 9#h#f#f#@ @ d#g#g#y (+F#S S 9.S S &.S S S S S S S S S S S S S S S S G#H#M I#g#g#f#i#k#@ 9#f#f#f#f#f#f#f#f#f#",
". k#f#g#l#l#h#f#h#7#@ @ d#g#g#2 5+J#S S S S S &.S S S S S S S S S S S S S S S S 1.K#L#M#N#g#f#l#k#@ @ i#f#f#f#f#f#f#f#f#",
"+ k#g#g#f#f#f#h#9#@ @ @ d#g#g#{ O#R S S S S S &.S S S S S S S S S S S S S S S S t %.P#M (+r#l#f#f#k#@ 9#i#f#f#f#l#h#f#f#",
". k#f#g#k#9#9#9#@ @ @ @ d#g#g#^.G.T S S S S S &.S S S S S S S S S S S S S S S S t R Q#R#S#+ k#f#f#k#@ @ @ 9#9#9#k#h#f#T#",
". k#f#g#9#@ @ @ @ @ @ @ d#g#g#U#V#9 W#B#X#s :.|.S S S S S S S S S S S S S S ++X#S _.;.Y#Z#8#h#f#h#6#@ 6#6#6#6#7#h#f#h#`#",
". k#f#g#9#@ @ @ @ @ @ @ 8#g#g#g#I#:  $.$+$@$I i+#$9.S S S S S S S S S S S S $$+$%$&$*$I#g#g#f#h#9#@ @ k#f#f#f#f#f#h#9## ",
". k#h#g#9#@ @ @ @ @ @ @ $ 8#g#g#g#=$-$F@;$>$,$'$)$a r 5#r r R R R R H.W+!$b ~$;${$1@]$g#g#g#7#6#@ @ @ k#h#h#h#h#7#6#@ # ",
". . . + @ @ @ @ @ @ @ @ + + + + + + ^$c#/$3#($7 _$:$<$[$<$<$}$}$<$<$:$_$|$($&@f+] ].+ + + + @ @ @ @ @ @ @ @ @ @ @ @ @ # ",
". + . + @ @ @ @ @ @ @ @ + + + + + + + + + ].F+1$2$3$4$4$4$4$4$4$4$4$3$5$R.F+y + + + + + + + @ @ @ @ @ @ @ @ @ @ @ @ @ # "};
