/* XPM */
static char * u235off_xpm[] = {
"60 60 41 1",
" 	c #DF7DDF7DDF7D",
".	c #E79DE38DE79D",
"X	c #E79DE79DE79D",
"o	c #DF7DDB6CDF7D",
"O	c #D75CD75CD75C",
"+	c #D75CD34CD75C",
"@	c #C71BC30BC71B",
"#	c #B6DAB2CAB6DA",
"$	c #BEFBBAEABEFB",
"%	c #CF3CCF3CCF3C",
"&	c #B6DAB6DAB6DA",
"*	c #965892489658",
"=	c #79E77DF779E7",
"-	c #965896589658",
";	c #BEFBBEFBBEFB",
":	c #861782078617",
">	c #CF3CCB2BCF3C",
",	c #AEBAAEBAAEBA",
"<	c #618561856185",
"1	c #596559655965",
"2	c #69A66DB669A6",
"3	c #9E799E799E79",
"4	c #59655D755965",
"5	c #514451445144",
"6	c #49244D344924",
"7	c #861786178617",
"8	c #AEBAAAAAAEBA",
"9	c #79E779E779E7",
"0	c #492449244924",
"q	c #8E388E388E38",
"w	c #69A669A669A6",
"e	c #71C671C671C6",
"r	c #C71BC71BC71B",
"t	c #514455555144",
"y	c #618565956185",
"u	c #9E799A699E79",
"i	c #71C675D671C6",
"p	c #8E388A288E38",
"a	c #A699A699A699",
"s	c #A699A289A699",
"d	c #000000000000",
" .. ........           .                      .............X",
". . ........           .                      .............X",
"  . ........           .                      .............X",
".   ........           .                      .............X",
"    .......  oOoo      .                   ooOo  ..........X",
".   ...... o+@#$%      .                   +$#@+o .........X",
" .. ......o%&*=-;o     .                  O;-:-&%o.........X",
". . .... o>,=<123>     .                  %321<:,>o .......X",
"    ... o%,:4564=#+    .                 o$74654:8%o ......X",
"  . .. o%#945605<q@o   .                o>3w56654=#%o .....X",
"  . . o>8=4560065e8%   .                %,91606654:8>o ....X",
".   . +#:<5600006<q;   .               o;q<6606665<:#+ ....X",
".    O$7456600000523+  .               +3250006666547$O ...X",
"... or32566600000647$O .              O$74600066666523ro...X",
".   +89t66660000065y-@o.             oru<560006666661i8+ ..X",
".  o@p<666660000006598+              +89t000006666666<p@o .X",
" . +,et6666600000006y*ro            or*y6000006666666te#+ .X",
"  o;q466666600000000te8%            +8et600000666666664q;o.X",
". +ai5666666000000006<p;O          O;q<6000000666666665ia+ X",
" o@q<66666660000000065wuro        oruw56000000666666666<q@oX",
" O,it66666660000000006t=#O       o%89t60000000666666666ti,O.",
" %3y5666666600000000005w3%       O;p<5000000006666666665y3>.",
"o@p466666666000000000052u%       O$qy50000000066666666664p@ ",
"o;:16666666600000000061:#OooO++Ooo%8=16000000066666666661:; ",
"O&956666666600000000652s>oO@8ss8@Oo>32560000006666666666t9& ",
"%a25666666660000000061:$OO;-iw2i-;OO$:16000000666666666652ao",
"r-y666666666000000005ws>O;*w566tw-;O%s2500000066666666666y-O",
"r*<066666666000000001:&O%s2t6006tes%O&:160000066666666666<*O",
"r*<66666666666666666<-rO@7460000647@Or-<66666666666666666<*O",
">s9wwwwwwwywwwwwwyww=a+O$it600006ti$O%a=ywwwwwwywwwwwwyww93o",
"+;8333333333333333338;OO$it000006ti$OO@833333333333333333a$ ",
"oO+%%%%%%%%%%%%%%%%%+o o@7460000647@o o+%%%%%%%%%%%%%%%%%+O.",
"  . ........            %se50006tes%          .............X",
".   ........            o;-wt66tw-;o          .............X",
"... ........           . O;-iw2i-;+           .............X",
"    ........           .  O@8ss8;O            .............X",
".   ........           .  oo+++OOo            .............X",
"    ........            o%>>++O+>r%o          .............X",
" .. ........           o>a*3a88a3*8>o         .............X",
"    ........           +&=yyw22wyy9#+         .............X",
" .. ........          or-y56655665<*;O        .............X",
"  . ........          %89t60000006523>        .............X",
" .. ........         O$p<60000000061:&O       .............X",
"    ........         >3w560000000005yuro      .............X",
".   ...ddd..   ddd  O&=1600000000006ti8%      .............X",
". . ...ddd..   ddd o@-y560ddddd00006ddddd   dddddddd.......X",
" ......ddd..   ddd %se560ddddddd000ddddddd..dddddddd.......X",
" ......ddd..   dddo;7466ddd000ddd0ddd64ddd..ddd............X",
".......ddd..   ddd>aw566ddd000ddd0ddd65ydd .ddd............X",
" ......ddd.....ddd$e1606000000ddd000006ddd+ ddddddd.........",
".......ddd.....ddd76560600000ddd00000ddddq@ dddddddd........",
" ......ddd.....ddd006006000ddddd00000ddddd8 ddd..dddd.......",
".......ddd.....ddd00000600ddddd00000000dddd+......ddd.......",
" ......ddd.....ddd0000060dddd00000000000ddd,+.....ddd.......",
" ......ddd.....ddd0000060ddd000000ddd000ddd3ddd...ddd.......",
" .......ddd...ddd,<5t566ddd0000000ddd06dddd#ddd..dddd......X",
" .......ddddddddd%;uiw4tddddddddd00ddddddd, dddddddd.......X",
" .........ddddd.. O%#sp9ddddddddd55tdddddro..dddddd........X",
"... ........      . O%@&s-*q******-s&@%O      .............X",
".   ........          oOOO++++++++OO+o        .............X"};
